<svg id="svg" version="1.1" xmlns="http://www.w3.org/2000/svg" xmlns:xlink="http://www.w3.org/1999/xlink" width="400" height="61.53846153846154" viewBox="0, 0, 400,61.53846153846154"><g id="svgg"><path id="path0" d="M47.000 7.381 C 47.000 7.499,47.141 7.595,47.314 7.595 C 47.502 7.595,47.596 7.509,47.547 7.381 C 47.501 7.263,47.360 7.167,47.232 7.167 C 47.104 7.167,47.000 7.263,47.000 7.381 M10.890 10.467 C 10.842 10.652,10.659 10.840,10.485 10.886 C 10.064 10.996,10.076 11.333,10.500 11.333 C 10.685 11.333,10.833 11.222,10.833 11.083 C 10.833 10.941,10.983 10.833,11.179 10.833 C 11.412 10.833,11.507 10.743,11.471 10.555 C 11.390 10.142,10.991 10.081,10.890 10.467 M50.750 10.306 C 50.545 10.511,50.697 10.833,51.000 10.833 C 51.185 10.833,51.333 10.944,51.333 11.083 C 51.333 11.221,51.453 11.333,51.599 11.333 C 51.745 11.333,51.902 11.476,51.948 11.651 C 51.993 11.826,52.174 12.007,52.349 12.052 C 52.524 12.098,52.667 12.255,52.667 12.401 C 52.667 12.547,52.779 12.667,52.917 12.667 C 53.054 12.667,53.167 12.554,53.167 12.417 C 53.167 12.279,53.103 12.167,53.024 12.167 C 52.771 12.167,52.000 11.357,52.000 11.091 C 52.000 10.944,51.856 10.833,51.667 10.833 C 51.455 10.833,51.333 10.722,51.333 10.528 C 51.333 10.249,50.952 10.104,50.750 10.306 M8.500 13.528 C 8.500 13.696,8.612 13.833,8.750 13.833 C 8.887 13.833,9.000 13.696,9.000 13.528 C 9.000 13.360,8.887 13.222,8.750 13.222 C 8.612 13.222,8.500 13.360,8.500 13.528 M8.000 13.970 C 7.622 14.141,7.622 14.500,8.000 14.500 C 8.222 14.500,8.333 14.389,8.333 14.167 C 8.333 13.983,8.315 13.839,8.292 13.845 C 8.269 13.851,8.137 13.908,8.000 13.970 M54.042 13.944 C 53.749 14.062,53.781 14.500,54.083 14.500 C 54.222 14.500,54.333 14.352,54.333 14.167 C 54.333 13.983,54.315 13.839,54.292 13.846 C 54.269 13.854,54.156 13.897,54.042 13.944 M54.568 14.729 C 54.427 15.097,54.615 15.285,54.869 15.031 C 55.020 14.880,55.020 14.787,54.872 14.639 C 54.724 14.491,54.652 14.512,54.568 14.729 M6.915 15.669 C 6.857 15.763,6.757 15.806,6.691 15.765 C 6.625 15.724,6.571 15.836,6.571 16.012 C 6.571 16.209,6.686 16.333,6.869 16.333 C 7.075 16.333,7.167 16.206,7.167 15.917 C 7.167 15.473,7.085 15.394,6.915 15.669 M55.000 16.035 C 55.000 16.219,55.124 16.333,55.323 16.333 C 55.539 16.333,55.638 16.227,55.622 16.013 C 55.591 15.601,55.000 15.623,55.000 16.035 M6.333 17.161 C 6.333 17.250,6.209 17.275,6.056 17.216 C 5.870 17.145,5.818 17.174,5.899 17.305 C 6.072 17.585,6.500 17.546,6.500 17.250 C 6.500 17.112,6.462 17.000,6.417 17.000 C 6.371 17.000,6.333 17.073,6.333 17.161 M56.333 17.839 C 56.333 18.019,56.433 18.167,56.556 18.167 C 56.678 18.167,56.778 18.057,56.778 17.924 C 56.778 17.790,56.678 17.643,56.556 17.596 C 56.417 17.542,56.333 17.634,56.333 17.839 M5.516 17.897 C 5.369 18.075,5.383 18.150,5.579 18.225 C 5.754 18.292,5.833 18.220,5.833 17.995 C 5.833 17.606,5.773 17.588,5.516 17.897 M45.988 18.517 C 44.714 19.194,44.388 19.373,43.750 19.749 C 42.711 20.361,40.331 21.500,40.091 21.500 C 40.015 21.500,39.645 21.639,39.268 21.808 C 38.093 22.338,36.950 22.696,36.059 22.816 C 35.587 22.879,35.100 23.012,34.976 23.112 C 34.852 23.212,34.094 23.347,33.292 23.412 C 30.931 23.603,30.860 23.755,30.843 28.684 C 30.829 32.809,30.928 33.600,31.481 33.813 C 32.052 34.033,33.466 34.285,34.908 34.423 C 35.546 34.484,36.258 34.607,36.492 34.696 C 36.725 34.785,37.308 34.931,37.787 35.020 C 38.266 35.109,38.866 35.291,39.121 35.423 C 39.375 35.556,39.780 35.665,40.021 35.666 C 40.262 35.666,40.553 35.779,40.667 35.917 C 40.781 36.054,40.982 36.167,41.114 36.167 C 41.468 36.167,44.410 37.536,45.583 38.248 C 45.950 38.470,46.456 38.655,46.708 38.659 L 47.167 38.667 47.167 28.519 C 47.167 17.151,47.249 17.847,45.988 18.517 M5.000 19.593 C 5.000 19.736,4.925 19.807,4.833 19.750 C 4.742 19.693,4.667 19.726,4.667 19.823 C 4.667 19.921,4.779 20.000,4.917 20.000 C 5.056 20.000,5.167 19.852,5.167 19.667 C 5.167 19.483,5.129 19.333,5.083 19.333 C 5.037 19.333,5.000 19.450,5.000 19.593 M57.500 20.808 C 57.500 21.222,57.570 21.333,57.833 21.333 C 58.017 21.333,58.167 21.232,58.167 21.109 C 58.167 20.986,58.017 20.749,57.833 20.583 C 57.507 20.288,57.500 20.292,57.500 20.808 M4.030 21.027 C 4.107 21.548,4.667 21.585,4.667 21.069 C 4.667 20.773,4.575 20.667,4.322 20.667 C 4.063 20.667,3.990 20.757,4.030 21.027 M46.137 21.481 C 46.220 22.343,46.045 22.833,45.655 22.833 C 45.469 22.833,45.114 22.937,44.867 23.064 C 44.619 23.191,43.854 23.350,43.167 23.418 C 42.479 23.486,41.729 23.615,41.500 23.706 C 40.901 23.942,36.334 24.159,35.848 23.974 C 35.242 23.744,35.628 23.496,36.768 23.384 C 37.308 23.331,37.938 23.194,38.167 23.080 C 38.396 22.966,38.996 22.817,39.500 22.750 C 40.004 22.683,40.619 22.524,40.867 22.397 C 41.114 22.270,41.489 22.164,41.700 22.161 C 41.911 22.158,42.383 22.010,42.750 21.833 C 43.117 21.656,43.567 21.508,43.750 21.505 C 43.933 21.501,44.308 21.347,44.583 21.162 C 45.373 20.632,46.070 20.775,46.137 21.481 M3.542 22.760 C 3.252 23.074,3.280 23.167,3.667 23.167 C 3.850 23.167,4.000 23.059,4.000 22.927 C 4.000 22.579,3.782 22.500,3.542 22.760 M19.979 23.775 C 19.796 23.995,19.750 25.043,19.750 28.955 C 19.750 34.467,19.719 34.333,21.004 34.333 C 21.338 34.333,21.651 34.374,21.700 34.423 C 21.823 34.546,27.501 34.555,27.624 34.432 C 27.678 34.378,28.237 34.333,28.866 34.333 C 29.645 34.333,30.037 34.265,30.093 34.119 C 30.308 33.558,30.247 23.669,30.028 23.585 C 29.366 23.331,20.203 23.505,19.979 23.775 M17.910 24.904 C 16.933 26.394,17.253 32.750,18.331 33.282 C 19.011 33.618,19.073 33.353,18.853 31.079 C 18.696 29.464,18.693 28.522,18.841 26.988 C 19.081 24.499,18.714 23.677,17.910 24.904 M58.862 24.928 C 58.892 25.183,59.001 25.418,59.103 25.452 C 59.221 25.491,59.260 25.357,59.208 25.087 C 59.095 24.494,58.795 24.355,58.862 24.928 M3.078 24.917 C 3.035 25.054,2.967 25.273,2.927 25.403 C 2.887 25.533,2.962 25.680,3.094 25.731 C 3.274 25.800,3.333 25.679,3.333 25.245 C 3.333 24.642,3.212 24.487,3.078 24.917 M15.315 25.944 C 14.770 26.089,14.628 26.800,15.084 27.099 C 15.415 27.316,15.461 27.428,15.324 27.684 C 15.208 27.900,15.211 28.105,15.333 28.333 C 15.449 28.550,15.456 28.770,15.353 28.963 C 15.250 29.155,15.257 29.370,15.372 29.575 C 15.518 29.835,15.470 29.955,15.108 30.244 C 14.378 30.826,14.710 31.686,15.783 31.988 C 16.592 32.216,16.650 32.022,16.674 28.958 C 16.701 25.654,16.669 25.582,15.315 25.944 M21.689 35.125 C 21.584 35.320,21.576 35.655,21.668 36.011 C 21.916 36.980,22.499 38.565,22.670 38.737 C 22.760 38.827,22.833 39.008,22.833 39.140 C 22.833 39.272,22.977 39.688,23.153 40.065 C 23.329 40.442,23.518 40.862,23.573 41.000 C 23.628 41.137,23.854 41.550,24.075 41.917 C 24.296 42.283,24.584 42.811,24.715 43.088 C 25.046 43.792,25.959 44.667,26.362 44.667 C 26.893 44.667,28.556 44.151,28.846 43.897 C 28.991 43.770,29.160 43.667,29.221 43.667 C 29.421 43.667,30.009 42.997,30.161 42.598 C 30.289 42.262,30.196 42.100,29.490 41.424 C 27.830 39.832,27.297 38.620,28.042 38.125 C 28.527 37.802,28.569 35.665,28.099 35.194 C 27.648 34.742,21.927 34.681,21.689 35.125 M3.089 36.549 C 3.017 36.713,3.006 36.894,3.063 36.952 C 3.232 37.121,3.368 36.883,3.291 36.555 C 3.221 36.264,3.212 36.263,3.089 36.549 M4.100 40.789 C 3.918 40.971,3.996 41.153,4.333 41.333 C 4.613 41.483,4.667 41.460,4.667 41.190 C 4.667 40.869,4.288 40.601,4.100 40.789 M57.500 41.222 C 57.500 41.546,57.568 41.618,57.816 41.553 C 58.197 41.453,58.167 40.939,57.776 40.863 C 57.579 40.824,57.500 40.927,57.500 41.222 M57.000 42.995 C 57.000 43.218,57.080 43.292,57.250 43.227 C 57.387 43.174,57.500 43.027,57.500 42.899 C 57.500 42.771,57.387 42.667,57.250 42.667 C 57.112 42.667,57.000 42.814,57.000 42.995 M56.625 43.948 C 56.269 44.041,56.235 44.444,56.583 44.444 C 56.721 44.444,56.796 44.408,56.751 44.363 C 56.706 44.318,56.753 44.180,56.855 44.057 C 56.957 43.934,57.013 43.842,56.979 43.853 C 56.945 43.863,56.785 43.906,56.625 43.948 M5.333 44.149 C 5.333 44.231,5.446 44.341,5.583 44.394 C 5.736 44.452,5.833 44.394,5.833 44.245 C 5.833 44.110,5.721 44.000,5.583 44.000 C 5.446 44.000,5.333 44.067,5.333 44.149 M55.667 45.437 C 55.667 45.659,55.712 45.670,55.917 45.500 C 56.054 45.386,56.167 45.264,56.167 45.230 C 56.167 45.195,56.054 45.167,55.917 45.167 C 55.779 45.167,55.667 45.288,55.667 45.437 M6.500 46.083 C 6.500 46.222,6.648 46.333,6.833 46.333 C 7.019 46.333,7.167 46.222,7.167 46.083 C 7.167 45.944,7.019 45.833,6.833 45.833 C 6.648 45.833,6.500 45.944,6.500 46.083 M55.003 45.973 C 55.010 46.279,55.328 46.578,55.331 46.282 C 55.332 46.088,55.408 46.023,55.542 46.100 C 55.656 46.166,55.692 46.156,55.620 46.077 C 55.459 45.901,54.999 45.823,55.003 45.973 M7.167 47.232 C 7.167 47.360,7.279 47.508,7.417 47.560 C 7.587 47.626,7.667 47.551,7.667 47.328 C 7.667 47.148,7.554 47.000,7.417 47.000 C 7.279 47.000,7.167 47.104,7.167 47.232 M54.500 47.333 C 54.500 47.731,54.756 47.775,54.899 47.403 C 55.042 47.031,55.031 47.000,54.750 47.000 C 54.611 47.000,54.500 47.148,54.500 47.333 M7.833 48.014 C 7.833 48.420,8.223 48.363,8.304 47.945 C 8.336 47.780,8.251 47.667,8.096 47.667 C 7.941 47.667,7.833 47.809,7.833 48.014 M9.038 49.698 C 9.141 50.007,9.500 50.058,9.500 49.764 C 9.500 49.619,9.381 49.500,9.236 49.500 C 9.091 49.500,9.002 49.589,9.038 49.698 M52.608 49.745 C 52.557 49.879,52.586 50.034,52.674 50.088 C 52.762 50.142,52.833 50.102,52.833 50.000 C 52.833 49.898,52.908 49.860,53.000 49.917 C 53.092 49.973,53.167 49.903,53.167 49.760 C 53.167 49.431,52.733 49.419,52.608 49.745 M9.667 50.417 C 9.667 50.554,9.770 50.667,9.897 50.667 C 10.024 50.667,10.167 50.817,10.215 51.000 C 10.263 51.183,10.417 51.333,10.556 51.333 C 10.696 51.333,10.853 51.467,10.905 51.630 C 11.004 51.941,12.000 52.416,12.000 52.152 C 12.000 52.068,11.887 52.000,11.750 52.000 C 11.611 52.000,11.500 51.852,11.500 51.667 C 11.500 51.444,11.389 51.333,11.167 51.333 C 10.944 51.333,10.833 51.222,10.833 51.000 C 10.833 50.778,10.722 50.667,10.500 50.667 C 10.315 50.667,10.167 50.556,10.167 50.417 C 10.167 50.279,10.054 50.167,9.917 50.167 C 9.779 50.167,9.667 50.279,9.667 50.417 M52.000 50.417 C 52.000 50.556,51.852 50.667,51.667 50.667 C 51.444 50.667,51.333 50.778,51.333 51.000 C 51.333 51.185,51.222 51.333,51.083 51.333 C 50.797 51.333,50.745 51.759,51.011 51.924 C 51.109 51.984,51.230 51.876,51.281 51.683 C 51.331 51.491,51.483 51.333,51.618 51.333 C 51.754 51.333,51.904 51.183,51.952 51.000 C 52.000 50.817,52.143 50.667,52.269 50.667 C 52.396 50.667,52.500 50.554,52.500 50.417 C 52.500 50.279,52.387 50.167,52.250 50.167 C 52.112 50.167,52.000 50.279,52.000 50.417 M49.545 52.825 C 49.562 53.047,49.629 53.100,49.758 52.993 C 49.862 52.907,50.001 52.890,50.066 52.955 C 50.131 53.020,50.135 52.944,50.074 52.787 C 49.924 52.394,49.515 52.424,49.545 52.825 M14.833 54.677 C 14.833 54.774,14.740 54.800,14.625 54.735 C 14.465 54.645,14.462 54.667,14.610 54.828 C 14.717 54.943,14.886 54.987,14.985 54.926 C 15.213 54.785,15.223 54.500,15.000 54.500 C 14.908 54.500,14.833 54.579,14.833 54.677 M47.000 54.702 C 47.000 54.886,47.460 54.866,47.577 54.677 C 47.630 54.591,47.522 54.532,47.337 54.546 C 47.152 54.560,47.000 54.630,47.000 54.702 M42.758 57.043 C 42.862 57.315,43.372 57.367,43.282 57.097 C 43.249 56.998,43.098 56.892,42.945 56.863 C 42.764 56.828,42.699 56.890,42.758 57.043 " stroke="none" fill="#ede8f1" fill-rule="evenodd"></path><path id="path1" d="M74.882 24.000 C 74.813 24.261,74.654 24.333,74.147 24.333 C 73.692 24.333,73.500 24.405,73.500 24.576 C 73.500 24.721,73.266 24.862,72.917 24.928 C 72.386 25.027,72.333 25.088,72.333 25.602 C 72.333 26.056,72.268 26.167,72.000 26.167 C 71.730 26.167,71.667 26.278,71.667 26.750 C 71.667 27.136,71.588 27.333,71.436 27.333 C 71.177 27.333,71.005 27.834,71.005 28.583 C 71.005 29.332,71.177 29.833,71.436 29.833 C 71.602 29.833,71.667 30.071,71.667 30.682 C 71.667 31.391,71.722 31.546,72.000 31.618 C 72.183 31.666,72.333 31.804,72.333 31.925 C 72.333 32.046,72.483 32.192,72.667 32.250 C 72.850 32.308,73.000 32.463,73.000 32.595 C 73.000 32.756,73.188 32.833,73.583 32.833 C 74.056 32.833,74.167 32.897,74.167 33.167 C 74.167 33.434,74.278 33.500,74.731 33.500 C 75.154 33.500,75.316 33.583,75.382 33.833 C 75.448 34.089,75.609 34.167,76.068 34.167 C 76.489 34.167,76.667 34.241,76.667 34.417 C 76.667 34.591,76.843 34.667,77.250 34.667 C 77.722 34.667,77.833 34.730,77.833 35.000 C 77.833 35.222,77.944 35.333,78.167 35.333 C 78.350 35.333,78.500 35.443,78.500 35.577 C 78.500 35.712,78.650 35.902,78.833 36.000 C 79.546 36.381,79.200 37.833,78.397 37.833 C 77.944 37.833,77.833 37.899,77.833 38.167 C 77.833 38.435,77.722 38.500,77.261 38.500 C 76.836 38.500,76.662 38.415,76.583 38.167 C 76.506 37.922,76.331 37.833,75.925 37.833 C 75.512 37.833,75.350 37.749,75.285 37.500 C 75.222 37.257,75.058 37.167,74.682 37.167 C 74.335 37.167,74.167 37.085,74.167 36.917 C 74.167 36.778,74.019 36.667,73.833 36.667 C 73.556 36.667,73.500 36.556,73.500 36.000 C 73.500 35.519,73.431 35.333,73.250 35.333 C 73.070 35.333,73.000 35.150,73.000 34.680 C 73.000 33.625,72.894 33.500,72.004 33.500 C 71.216 33.500,71.209 33.505,71.107 34.125 C 70.970 34.952,71.002 39.303,71.148 39.833 C 71.307 40.407,72.804 40.563,72.946 40.021 C 73.082 39.501,74.833 39.404,74.833 39.916 C 74.833 40.262,75.248 40.333,77.250 40.333 C 79.275 40.333,79.667 40.263,79.667 39.899 C 79.667 39.745,79.863 39.667,80.250 39.667 C 80.673 39.667,80.833 39.593,80.833 39.401 C 80.833 39.255,80.983 39.096,81.167 39.048 C 81.350 39.000,81.500 38.866,81.500 38.750 C 81.500 38.634,81.650 38.500,81.833 38.452 C 82.089 38.385,82.167 38.224,82.167 37.766 C 82.167 37.278,82.229 37.167,82.500 37.167 C 82.815 37.167,82.833 37.056,82.833 35.095 C 82.833 33.169,82.810 33.015,82.500 32.917 C 82.263 32.842,82.167 32.664,82.167 32.306 C 82.167 31.942,82.074 31.778,81.833 31.715 C 81.650 31.667,81.500 31.532,81.500 31.415 C 81.500 31.178,81.137 31.000,80.653 31.000 C 80.477 31.000,80.333 30.887,80.333 30.750 C 80.333 30.569,80.148 30.500,79.667 30.500 C 79.111 30.500,79.000 30.444,79.000 30.167 C 79.000 29.897,78.889 29.833,78.417 29.833 C 77.944 29.833,77.833 29.770,77.833 29.500 C 77.833 29.230,77.722 29.167,77.250 29.167 C 76.843 29.167,76.667 29.091,76.667 28.917 C 76.667 28.778,76.519 28.667,76.333 28.667 C 76.139 28.667,76.000 28.556,76.000 28.401 C 76.000 28.255,75.850 28.096,75.667 28.048 C 75.483 28.000,75.333 27.855,75.333 27.725 C 75.333 27.596,75.221 27.446,75.083 27.394 C 74.946 27.341,74.833 27.201,74.833 27.083 C 74.833 26.965,74.946 26.826,75.083 26.773 C 75.221 26.720,75.333 26.562,75.333 26.422 C 75.333 26.253,75.492 26.167,75.800 26.167 C 76.057 26.167,76.348 26.085,76.448 25.985 C 76.578 25.855,76.660 25.855,76.741 25.985 C 76.803 26.085,77.224 26.167,77.677 26.167 C 78.389 26.167,78.500 26.212,78.500 26.500 C 78.500 26.722,78.611 26.833,78.833 26.833 C 79.019 26.833,79.167 26.944,79.167 27.083 C 79.167 27.221,79.279 27.333,79.417 27.333 C 79.556 27.333,79.667 27.481,79.667 27.667 C 79.667 27.889,79.778 28.000,80.000 28.000 C 80.293 28.000,80.333 28.111,80.333 28.917 L 80.333 29.833 81.254 29.833 L 82.174 29.833 82.129 26.792 L 82.083 23.750 81.250 23.750 C 80.432 23.750,80.416 23.760,80.364 24.292 C 80.310 24.853,79.667 25.122,79.667 24.583 C 79.667 24.391,79.454 24.333,78.750 24.333 C 77.944 24.333,77.833 24.293,77.833 24.000 C 77.833 23.693,77.722 23.667,76.401 23.667 C 75.109 23.667,74.960 23.699,74.882 24.000 M93.215 24.000 C 93.141 24.281,92.988 24.333,92.231 24.333 C 91.544 24.333,91.333 24.392,91.333 24.583 C 91.333 24.721,91.189 24.833,91.014 24.833 C 90.517 24.833,90.167 25.013,90.167 25.268 C 90.167 25.396,90.017 25.500,89.833 25.500 C 89.611 25.500,89.500 25.611,89.500 25.833 C 89.500 26.019,89.389 26.167,89.250 26.167 C 89.111 26.167,89.000 26.315,89.000 26.500 C 89.000 26.722,88.889 26.833,88.667 26.833 C 88.483 26.833,88.333 26.937,88.333 27.064 C 88.333 27.191,88.183 27.334,88.000 27.382 C 87.745 27.448,87.667 27.609,87.667 28.068 C 87.667 28.464,87.589 28.667,87.438 28.667 C 87.120 28.667,87.004 29.556,87.004 32.000 C 87.004 34.444,87.120 35.333,87.438 35.333 C 87.587 35.333,87.667 35.532,87.667 35.905 C 87.667 36.331,87.752 36.505,88.000 36.583 C 88.183 36.642,88.333 36.797,88.333 36.928 C 88.333 37.059,88.483 37.167,88.667 37.167 C 88.889 37.167,89.000 37.278,89.000 37.500 C 89.000 37.683,89.104 37.833,89.231 37.833 C 89.357 37.833,89.500 37.983,89.548 38.167 C 89.596 38.350,89.755 38.500,89.901 38.500 C 90.047 38.500,90.167 38.612,90.167 38.750 C 90.167 38.889,90.315 39.000,90.500 39.000 C 90.722 39.000,90.833 39.111,90.833 39.333 C 90.833 39.625,90.944 39.667,91.731 39.667 C 92.488 39.667,92.641 39.719,92.715 40.000 C 92.797 40.315,92.942 40.333,95.417 40.333 C 97.891 40.333,98.036 40.315,98.118 40.000 C 98.184 39.750,98.346 39.667,98.769 39.667 C 99.222 39.667,99.333 39.601,99.333 39.333 C 99.333 39.056,99.444 39.000,100.000 39.000 C 100.481 39.000,100.667 38.931,100.667 38.750 C 100.667 38.612,100.779 38.500,100.917 38.500 C 101.056 38.500,101.167 38.352,101.167 38.167 C 101.167 37.944,101.278 37.833,101.500 37.833 C 101.722 37.833,101.833 37.722,101.833 37.500 C 101.833 37.278,101.944 37.167,102.167 37.167 C 102.437 37.167,102.500 37.056,102.500 36.583 C 102.500 36.176,102.575 36.000,102.750 36.000 C 102.931 36.000,103.000 35.815,103.000 35.333 C 103.000 34.778,103.056 34.667,103.333 34.667 C 103.653 34.667,103.667 34.556,103.667 32.011 C 103.667 29.502,103.648 29.350,103.333 29.250 C 103.085 29.171,103.000 28.998,103.000 28.572 C 103.000 28.175,102.924 28.000,102.750 28.000 C 102.575 28.000,102.500 27.824,102.500 27.417 C 102.500 26.944,102.437 26.833,102.167 26.833 C 101.944 26.833,101.833 26.722,101.833 26.500 C 101.833 26.278,101.722 26.167,101.500 26.167 C 101.278 26.167,101.167 26.056,101.167 25.833 C 101.167 25.648,101.056 25.500,100.917 25.500 C 100.779 25.500,100.667 25.388,100.667 25.252 C 100.667 25.091,100.431 24.966,100.000 24.897 C 99.598 24.833,99.333 24.700,99.333 24.562 C 99.333 24.396,99.082 24.333,98.417 24.333 C 97.611 24.333,97.500 24.293,97.500 24.000 C 97.500 23.684,97.389 23.667,95.401 23.667 C 93.442 23.667,93.296 23.689,93.215 24.000 M114.833 24.000 C 114.833 24.304,114.722 24.333,113.583 24.333 C 112.630 24.333,112.333 24.388,112.333 24.564 C 112.333 24.691,112.183 24.834,112.000 24.882 C 111.817 24.930,111.667 25.088,111.667 25.234 C 111.667 25.427,111.506 25.500,111.083 25.500 C 110.611 25.500,110.500 25.563,110.500 25.833 C 110.500 26.056,110.389 26.167,110.167 26.167 C 109.951 26.167,109.833 26.278,109.833 26.481 C 109.833 26.654,109.684 26.833,109.500 26.882 C 109.257 26.945,109.167 27.109,109.167 27.484 C 109.167 27.832,109.085 28.000,108.917 28.000 C 108.742 28.000,108.667 28.176,108.667 28.583 C 108.667 29.056,108.603 29.167,108.333 29.167 C 108.012 29.167,108.000 29.278,108.000 32.250 C 108.000 35.222,108.012 35.333,108.333 35.333 C 108.611 35.333,108.667 35.444,108.667 36.000 C 108.667 36.481,108.736 36.667,108.917 36.667 C 109.054 36.667,109.167 36.811,109.167 36.986 C 109.167 37.471,109.344 37.833,109.582 37.833 C 109.699 37.833,109.834 37.983,109.882 38.167 C 109.930 38.350,110.088 38.500,110.234 38.500 C 110.380 38.500,110.500 38.612,110.500 38.750 C 110.500 38.923,110.674 39.000,111.064 39.000 C 111.488 39.000,111.649 39.083,111.715 39.333 C 111.787 39.610,111.942 39.667,112.632 39.667 C 113.321 39.667,113.476 39.723,113.548 40.000 C 113.631 40.315,113.776 40.333,116.250 40.333 C 118.724 40.333,118.869 40.315,118.952 40.000 C 119.020 39.739,119.179 39.667,119.686 39.667 C 120.222 39.667,120.333 39.609,120.333 39.333 C 120.333 39.063,120.444 39.000,120.917 39.000 C 121.324 39.000,121.500 38.925,121.500 38.750 C 121.500 38.612,121.620 38.500,121.766 38.500 C 121.912 38.500,122.069 38.357,122.114 38.182 C 122.160 38.007,122.341 37.827,122.515 37.781 C 122.877 37.687,122.965 36.535,122.671 35.761 C 122.474 35.242,121.924 35.193,121.628 35.667 C 121.513 35.850,121.325 36.000,121.210 36.000 C 121.094 36.000,121.000 36.150,121.000 36.333 C 121.000 36.556,120.889 36.667,120.667 36.667 C 120.481 36.667,120.333 36.778,120.333 36.917 C 120.333 37.091,120.157 37.167,119.750 37.167 C 119.278 37.167,119.167 37.230,119.167 37.500 C 119.167 37.793,119.056 37.833,118.250 37.833 C 117.444 37.833,117.333 37.874,117.333 38.167 C 117.333 38.382,117.222 38.500,117.019 38.500 C 116.846 38.500,116.667 38.351,116.618 38.167 C 116.546 37.890,116.391 37.833,115.702 37.833 C 115.012 37.833,114.857 37.777,114.785 37.500 C 114.737 37.317,114.578 37.167,114.432 37.167 C 114.286 37.167,114.167 37.054,114.167 36.917 C 114.167 36.778,114.019 36.667,113.833 36.667 C 113.540 36.667,113.500 36.556,113.500 35.750 C 113.500 35.046,113.442 34.833,113.250 34.833 C 113.038 34.833,113.000 34.407,113.000 32.000 C 113.000 29.593,113.038 29.167,113.250 29.167 C 113.425 29.167,113.500 28.991,113.500 28.583 C 113.500 28.111,113.563 28.000,113.833 28.000 C 114.056 28.000,114.167 27.889,114.167 27.667 C 114.167 27.478,114.278 27.333,114.422 27.333 C 114.562 27.333,114.720 27.221,114.773 27.083 C 114.826 26.946,114.973 26.833,115.101 26.833 C 115.229 26.833,115.333 26.683,115.333 26.500 C 115.333 26.187,115.444 26.167,117.155 26.167 C 118.831 26.167,118.986 26.193,119.083 26.500 C 119.142 26.683,119.297 26.833,119.428 26.833 C 119.559 26.833,119.667 26.946,119.667 27.083 C 119.667 27.222,119.815 27.333,120.000 27.333 C 120.222 27.333,120.333 27.444,120.333 27.667 C 120.333 27.889,120.444 28.000,120.667 28.000 C 120.937 28.000,121.000 28.111,121.000 28.583 C 121.000 28.991,121.075 29.167,121.250 29.167 C 121.389 29.167,121.500 29.315,121.500 29.500 C 121.500 29.778,121.611 29.833,122.167 29.833 L 122.833 29.833 122.833 27.014 C 122.833 25.463,122.788 24.075,122.732 23.930 C 122.578 23.528,121.658 23.582,121.548 24.000 C 121.500 24.183,121.357 24.333,121.231 24.333 C 121.104 24.333,121.000 24.446,121.000 24.583 C 121.000 24.722,120.852 24.833,120.667 24.833 C 120.481 24.833,120.333 24.722,120.333 24.583 C 120.333 24.383,120.083 24.333,119.083 24.333 C 117.944 24.333,117.833 24.304,117.833 24.000 C 117.833 23.691,117.722 23.667,116.333 23.667 C 114.944 23.667,114.833 23.691,114.833 24.000 M146.885 23.988 C 146.834 24.183,146.658 24.333,146.481 24.333 C 146.235 24.333,146.167 24.456,146.167 24.897 C 146.167 25.321,146.084 25.483,145.833 25.548 C 145.578 25.615,145.500 25.776,145.500 26.234 C 145.500 26.656,145.426 26.833,145.250 26.833 C 145.077 26.833,145.000 27.007,145.000 27.397 C 145.000 27.821,144.917 27.983,144.667 28.048 C 144.432 28.110,144.333 28.276,144.333 28.611 C 144.333 28.906,144.207 29.166,144.000 29.295 C 143.747 29.453,143.667 29.683,143.667 30.251 C 143.667 30.780,143.598 31.000,143.434 31.000 C 143.166 31.000,143.000 31.355,143.000 31.930 C 143.000 32.177,142.903 32.333,142.750 32.333 C 142.577 32.333,142.500 32.507,142.500 32.897 C 142.500 33.321,142.417 33.483,142.167 33.548 C 141.911 33.615,141.833 33.776,141.833 34.234 C 141.833 34.633,141.756 34.833,141.603 34.833 C 141.340 34.833,141.172 35.333,141.169 36.125 C 141.167 36.494,141.087 36.667,140.917 36.667 C 140.779 36.667,140.667 36.774,140.667 36.905 C 140.667 37.037,140.517 37.192,140.333 37.250 C 140.150 37.308,140.000 37.463,140.000 37.595 C 140.000 37.726,139.893 37.833,139.761 37.833 C 139.630 37.833,139.475 37.983,139.417 38.167 C 139.358 38.350,139.203 38.500,139.072 38.500 C 138.910 38.500,138.833 38.688,138.833 39.083 L 138.833 39.667 141.830 39.667 L 144.827 39.667 144.929 39.259 C 145.085 38.640,144.896 38.500,143.907 38.500 L 143.000 38.500 143.000 37.583 C 143.000 36.856,143.055 36.667,143.266 36.667 C 143.412 36.667,143.570 36.517,143.618 36.333 C 143.700 36.022,143.846 36.000,145.833 36.000 C 147.821 36.000,147.967 36.022,148.048 36.333 C 148.096 36.517,148.255 36.667,148.401 36.667 C 148.593 36.667,148.667 36.827,148.667 37.250 C 148.667 37.657,148.742 37.833,148.917 37.833 C 149.056 37.833,149.167 37.981,149.167 38.167 C 149.167 38.460,149.056 38.500,148.250 38.500 L 147.333 38.500 147.333 39.083 L 147.333 39.667 151.333 39.667 L 155.333 39.667 155.333 39.083 C 155.333 38.528,155.306 38.500,154.750 38.500 C 154.278 38.500,154.167 38.437,154.167 38.167 C 154.167 37.944,154.056 37.833,153.833 37.833 C 153.563 37.833,153.500 37.722,153.500 37.250 C 153.500 36.843,153.425 36.667,153.250 36.667 C 153.080 36.667,152.999 36.494,152.998 36.125 C 152.994 35.333,152.826 34.833,152.564 34.833 C 152.410 34.833,152.333 34.633,152.333 34.234 C 152.333 33.776,152.255 33.615,152.000 33.548 C 151.750 33.483,151.667 33.321,151.667 32.897 C 151.667 32.444,151.601 32.333,151.333 32.333 C 151.040 32.333,151.000 32.222,151.000 31.417 C 151.000 30.713,150.942 30.500,150.750 30.500 C 150.574 30.500,150.500 30.322,150.500 29.901 C 150.500 29.442,150.422 29.282,150.167 29.215 C 149.916 29.149,149.833 28.988,149.833 28.564 C 149.833 28.111,149.768 28.000,149.500 28.000 C 149.230 28.000,149.167 27.889,149.167 27.417 C 149.167 27.009,149.091 26.833,148.917 26.833 C 148.727 26.833,148.667 26.628,148.667 25.984 C 148.667 25.284,148.610 25.121,148.342 25.051 C 148.109 24.990,148.004 24.795,147.967 24.358 C 147.906 23.621,147.057 23.331,146.885 23.988 M266.944 23.778 C 266.883 23.839,266.833 24.093,266.833 24.342 C 266.833 24.654,266.730 24.821,266.500 24.882 C 266.245 24.948,266.167 25.109,266.167 25.568 C 266.167 26.056,266.105 26.167,265.833 26.167 C 265.563 26.167,265.500 26.278,265.500 26.750 C 265.500 27.157,265.425 27.333,265.250 27.333 C 265.069 27.333,265.000 27.519,265.000 28.000 C 265.000 28.556,264.944 28.667,264.667 28.667 C 264.374 28.667,264.333 28.778,264.333 29.583 C 264.333 30.389,264.293 30.500,264.000 30.500 C 263.730 30.500,263.667 30.611,263.667 31.083 C 263.667 31.471,263.589 31.667,263.434 31.667 C 263.179 31.667,263.000 32.017,263.000 32.519 C 263.000 32.698,262.887 32.887,262.750 32.940 C 262.596 32.999,262.500 33.252,262.500 33.601 C 262.500 34.056,262.435 34.167,262.167 34.167 C 261.904 34.167,261.833 34.278,261.833 34.690 C 261.833 34.978,261.713 35.301,261.566 35.408 C 261.417 35.518,261.261 35.947,261.211 36.385 C 261.154 36.893,261.043 37.167,260.895 37.167 C 260.769 37.167,260.667 37.317,260.667 37.500 C 260.667 37.722,260.556 37.833,260.333 37.833 C 260.111 37.833,260.000 37.944,260.000 38.167 C 260.000 38.437,259.889 38.500,259.417 38.500 C 258.861 38.500,258.833 38.528,258.833 39.083 L 258.833 39.667 261.917 39.667 L 265.000 39.667 265.000 39.083 C 265.000 38.517,264.981 38.500,264.353 38.500 C 263.846 38.500,263.687 38.428,263.618 38.167 C 263.570 37.983,263.412 37.833,263.266 37.833 C 263.111 37.833,263.000 37.694,263.000 37.500 C 263.000 37.278,263.111 37.167,263.333 37.167 C 263.603 37.167,263.667 37.056,263.667 36.583 L 263.667 36.000 266.167 36.000 L 268.667 36.000 268.667 36.583 C 268.667 36.991,268.742 37.167,268.917 37.167 C 269.097 37.167,269.167 37.351,269.167 37.825 L 269.167 38.483 268.292 38.533 C 267.442 38.582,267.417 38.598,267.417 39.083 L 267.417 39.583 271.375 39.628 L 275.333 39.673 275.333 39.086 C 275.333 38.698,275.255 38.500,275.103 38.500 C 274.976 38.500,274.833 38.350,274.785 38.167 C 274.737 37.983,274.578 37.833,274.432 37.833 C 274.278 37.833,274.167 37.694,274.167 37.500 C 274.167 37.278,274.056 37.167,273.833 37.167 C 273.544 37.167,273.500 37.056,273.500 36.328 C 273.500 35.736,273.426 35.461,273.250 35.394 C 273.112 35.341,273.000 35.162,273.000 34.996 C 273.000 34.516,272.817 34.167,272.566 34.167 C 272.410 34.167,272.333 33.969,272.333 33.568 C 272.333 33.109,272.255 32.948,272.000 32.882 C 271.750 32.816,271.667 32.654,271.667 32.231 C 271.667 31.778,271.601 31.667,271.333 31.667 C 271.040 31.667,271.000 31.556,271.000 30.750 C 271.000 30.046,270.942 29.833,270.750 29.833 C 270.575 29.833,270.500 29.657,270.500 29.250 C 270.500 28.778,270.437 28.667,270.167 28.667 C 269.889 28.667,269.833 28.556,269.833 28.000 C 269.833 27.444,269.778 27.333,269.500 27.333 C 269.211 27.333,269.167 27.222,269.167 26.495 C 269.167 25.903,269.093 25.628,268.917 25.560 C 268.772 25.505,268.667 25.255,268.667 24.967 C 268.667 24.617,268.572 24.444,268.349 24.386 C 268.174 24.340,267.993 24.159,267.948 23.985 C 267.866 23.673,267.189 23.533,266.944 23.778 M311.667 24.000 C 311.667 24.293,311.556 24.333,310.750 24.333 C 310.046 24.333,309.833 24.391,309.833 24.583 C 309.833 24.721,309.689 24.833,309.514 24.833 C 309.017 24.833,308.667 25.013,308.667 25.268 C 308.667 25.396,308.517 25.500,308.333 25.500 C 308.111 25.500,308.000 25.611,308.000 25.833 C 308.000 26.056,307.889 26.167,307.667 26.167 C 307.444 26.167,307.333 26.278,307.333 26.500 C 307.333 26.685,307.222 26.833,307.083 26.833 C 306.946 26.833,306.833 26.937,306.833 27.064 C 306.833 27.191,306.683 27.334,306.500 27.382 C 306.247 27.448,306.167 27.609,306.167 28.048 C 306.167 28.488,306.086 28.649,305.833 28.715 C 305.515 28.798,305.500 28.942,305.500 32.000 C 305.500 35.058,305.515 35.202,305.833 35.285 C 306.082 35.350,306.167 35.512,306.167 35.925 C 306.167 36.331,306.255 36.506,306.500 36.583 C 306.683 36.642,306.833 36.797,306.833 36.928 C 306.833 37.059,306.946 37.167,307.083 37.167 C 307.222 37.167,307.333 37.315,307.333 37.500 C 307.333 37.722,307.444 37.833,307.667 37.833 C 307.889 37.833,308.000 37.944,308.000 38.167 C 308.000 38.389,308.111 38.500,308.333 38.500 C 308.519 38.500,308.667 38.611,308.667 38.750 C 308.667 38.889,308.815 39.000,309.000 39.000 C 309.222 39.000,309.333 39.111,309.333 39.333 C 309.333 39.625,309.444 39.667,310.231 39.667 C 310.988 39.667,311.141 39.719,311.215 40.000 C 311.297 40.315,311.442 40.333,313.917 40.333 C 316.391 40.333,316.536 40.315,316.618 40.000 C 316.684 39.750,316.846 39.667,317.269 39.667 C 317.722 39.667,317.833 39.601,317.833 39.333 C 317.833 39.063,317.944 39.000,318.417 39.000 C 318.824 39.000,319.000 38.925,319.000 38.750 C 319.000 38.611,319.148 38.500,319.333 38.500 C 319.556 38.500,319.667 38.389,319.667 38.167 C 319.667 37.944,319.778 37.833,320.000 37.833 C 320.215 37.833,320.333 37.722,320.333 37.519 C 320.333 37.346,320.482 37.167,320.667 37.118 C 320.909 37.055,321.000 36.891,321.000 36.516 C 321.000 36.168,321.082 36.000,321.250 36.000 C 321.429 36.000,321.500 35.817,321.500 35.353 C 321.500 34.846,321.572 34.687,321.833 34.618 C 322.149 34.536,322.167 34.391,322.167 31.944 C 322.167 29.502,322.148 29.350,321.833 29.250 C 321.585 29.171,321.500 28.998,321.500 28.572 C 321.500 28.175,321.424 28.000,321.250 28.000 C 321.082 28.000,321.000 27.832,321.000 27.484 C 321.000 27.109,320.909 26.945,320.667 26.882 C 320.482 26.833,320.333 26.654,320.333 26.481 C 320.333 26.278,320.215 26.167,320.000 26.167 C 319.778 26.167,319.667 26.056,319.667 25.833 C 319.667 25.611,319.556 25.500,319.333 25.500 C 319.150 25.500,319.000 25.396,319.000 25.268 C 319.000 25.013,318.650 24.833,318.153 24.833 C 317.977 24.833,317.833 24.721,317.833 24.583 C 317.833 24.391,317.620 24.333,316.917 24.333 C 316.111 24.333,316.000 24.293,316.000 24.000 C 316.000 23.684,315.889 23.667,313.833 23.667 C 311.778 23.667,311.667 23.684,311.667 24.000 M333.264 24.234 C 333.205 24.546,333.047 24.844,332.912 24.895 C 332.760 24.954,332.667 25.214,332.667 25.578 C 332.667 26.056,332.604 26.167,332.333 26.167 C 332.066 26.167,332.000 26.278,332.000 26.731 C 332.000 27.154,331.917 27.316,331.667 27.382 C 331.411 27.448,331.333 27.609,331.333 28.068 C 331.333 28.489,331.259 28.667,331.083 28.667 C 330.891 28.667,330.833 28.880,330.833 29.583 C 330.833 30.389,330.793 30.500,330.500 30.500 C 330.230 30.500,330.167 30.611,330.167 31.083 C 330.167 31.556,330.103 31.667,329.833 31.667 C 329.563 31.667,329.500 31.778,329.500 32.255 C 329.500 32.625,329.407 32.880,329.250 32.940 C 329.096 32.999,329.000 33.252,329.000 33.601 C 329.000 34.056,328.935 34.167,328.667 34.167 C 328.399 34.167,328.333 34.278,328.333 34.731 C 328.333 35.154,328.250 35.316,328.000 35.382 C 327.722 35.454,327.667 35.609,327.667 36.318 C 327.667 36.983,327.609 37.167,327.401 37.167 C 327.255 37.167,327.096 37.317,327.048 37.500 C 327.000 37.683,326.857 37.833,326.731 37.833 C 326.604 37.833,326.500 37.983,326.500 38.167 C 326.500 38.435,326.389 38.500,325.927 38.500 C 325.264 38.500,325.094 38.688,325.237 39.259 L 325.340 39.667 328.337 39.667 L 331.333 39.667 331.333 39.083 C 331.333 38.532,331.303 38.500,330.769 38.500 C 330.346 38.500,330.184 38.417,330.118 38.167 C 330.070 37.983,329.912 37.833,329.766 37.833 C 329.611 37.833,329.500 37.694,329.500 37.500 C 329.500 37.278,329.611 37.167,329.833 37.167 C 330.103 37.167,330.167 37.056,330.167 36.583 L 330.167 36.000 332.583 36.000 C 334.855 36.000,335.000 36.019,335.000 36.320 C 335.000 36.816,335.180 37.167,335.434 37.167 C 335.594 37.167,335.667 37.375,335.667 37.833 L 335.667 38.500 334.739 38.500 L 333.812 38.500 333.864 39.042 L 333.917 39.583 337.875 39.628 L 341.833 39.673 341.833 39.086 C 341.833 38.611,341.770 38.500,341.500 38.500 C 341.278 38.500,341.167 38.389,341.167 38.167 C 341.167 37.983,341.063 37.833,340.936 37.833 C 340.809 37.833,340.666 37.683,340.618 37.500 C 340.570 37.317,340.412 37.167,340.266 37.167 C 340.057 37.167,340.000 36.983,340.000 36.318 C 340.000 35.609,339.945 35.454,339.667 35.382 C 339.416 35.316,339.333 35.154,339.333 34.731 C 339.333 34.340,339.256 34.167,339.083 34.167 C 338.910 34.167,338.833 33.992,338.833 33.595 C 338.833 33.169,338.748 32.995,338.500 32.917 C 338.252 32.838,338.167 32.664,338.167 32.239 C 338.167 31.778,338.102 31.667,337.833 31.667 C 337.540 31.667,337.500 31.556,337.500 30.750 C 337.500 30.046,337.442 29.833,337.250 29.833 C 337.082 29.833,337.000 29.665,337.000 29.318 C 337.000 28.942,336.909 28.778,336.667 28.715 C 336.406 28.647,336.333 28.488,336.333 27.981 C 336.333 27.444,336.276 27.333,336.000 27.333 C 335.710 27.333,335.667 27.222,335.667 26.484 C 335.667 25.776,335.612 25.621,335.333 25.548 C 335.083 25.483,335.000 25.321,335.000 24.897 C 335.000 24.519,334.921 24.333,334.761 24.333 C 334.630 24.333,334.475 24.183,334.417 24.000 C 334.222 23.385,333.392 23.554,333.264 24.234 M127.077 24.509 C 126.797 24.963,127.163 25.500,127.753 25.500 C 128.222 25.500,128.333 25.564,128.333 25.833 C 128.333 26.056,128.444 26.167,128.667 26.167 C 128.994 26.167,129.000 26.278,129.000 32.333 L 129.000 38.500 128.093 38.500 C 127.104 38.500,126.915 38.640,127.071 39.259 L 127.173 39.667 131.420 39.667 L 135.667 39.667 135.667 39.083 L 135.667 38.500 134.750 38.500 L 133.833 38.500 133.833 32.424 L 133.833 26.348 134.258 25.924 C 134.521 25.661,134.869 25.500,135.174 25.500 C 135.626 25.500,135.667 25.452,135.667 24.917 L 135.667 24.333 131.427 24.333 C 128.627 24.333,127.149 24.393,127.077 24.509 M158.500 24.917 L 158.500 25.500 159.417 25.500 L 160.333 25.500 160.333 26.083 C 160.333 26.556,160.397 26.667,160.667 26.667 C 160.993 26.667,161.000 26.778,161.000 32.250 C 161.000 37.722,160.993 37.833,160.667 37.833 C 160.444 37.833,160.333 37.944,160.333 38.167 C 160.333 38.460,160.222 38.500,159.417 38.500 L 158.500 38.500 158.500 39.083 L 158.500 39.667 165.583 39.667 L 172.667 39.667 172.667 38.750 C 172.667 38.046,172.725 37.833,172.917 37.833 C 173.126 37.833,173.167 37.481,173.167 35.667 L 173.167 33.500 172.583 33.500 C 172.111 33.500,172.000 33.563,172.000 33.833 C 172.000 34.056,171.889 34.167,171.667 34.167 C 171.397 34.167,171.333 34.278,171.333 34.750 C 171.333 35.157,171.258 35.333,171.083 35.333 C 170.903 35.333,170.833 35.519,170.833 36.000 C 170.833 36.556,170.778 36.667,170.500 36.667 C 170.315 36.667,170.167 36.778,170.167 36.917 C 170.167 37.056,170.019 37.167,169.833 37.167 C 169.611 37.167,169.500 37.278,169.500 37.500 C 169.500 37.816,169.389 37.833,167.333 37.833 L 165.167 37.833 165.167 32.000 C 165.167 26.278,165.173 26.167,165.500 26.167 C 165.722 26.167,165.833 26.056,165.833 25.833 C 165.833 25.540,165.944 25.500,166.750 25.500 L 167.667 25.500 167.667 24.917 L 167.667 24.333 163.083 24.333 L 158.500 24.333 158.500 24.917 M185.000 24.917 C 185.000 25.472,185.028 25.500,185.583 25.500 C 186.056 25.500,186.167 25.563,186.167 25.833 C 186.167 26.056,186.278 26.167,186.500 26.167 C 186.827 26.167,186.833 26.278,186.833 32.000 C 186.833 37.722,186.827 37.833,186.500 37.833 C 186.278 37.833,186.167 37.944,186.167 38.167 C 186.167 38.437,186.056 38.500,185.583 38.500 C 185.028 38.500,185.000 38.528,185.000 39.083 L 185.000 39.667 188.000 39.667 L 191.000 39.667 191.000 39.083 L 191.000 38.500 190.083 38.500 C 189.278 38.500,189.167 38.460,189.167 38.167 C 189.167 37.981,189.056 37.833,188.917 37.833 C 188.701 37.833,188.667 37.269,188.667 33.755 C 188.667 30.199,188.699 29.689,188.917 29.773 C 189.054 29.826,189.167 30.005,189.167 30.171 C 189.167 30.651,189.350 31.000,189.601 31.000 C 189.761 31.000,189.833 31.208,189.833 31.667 C 189.833 32.222,189.889 32.333,190.167 32.333 C 190.456 32.333,190.500 32.444,190.500 33.172 C 190.500 33.737,190.576 34.040,190.734 34.100 C 190.862 34.149,191.016 34.447,191.075 34.762 C 191.138 35.102,191.280 35.333,191.424 35.333 C 191.591 35.333,191.667 35.519,191.667 35.932 C 191.667 36.391,191.745 36.552,192.000 36.618 C 192.277 36.691,192.333 36.846,192.333 37.535 C 192.333 38.224,192.390 38.379,192.667 38.452 C 192.917 38.517,193.000 38.679,193.000 39.103 L 193.000 39.667 193.917 39.667 C 194.722 39.667,194.833 39.626,194.833 39.333 C 194.833 39.148,194.944 39.000,195.083 39.000 C 195.275 39.000,195.333 38.787,195.333 38.083 C 195.333 37.278,195.374 37.167,195.667 37.167 C 195.934 37.167,196.000 37.056,196.000 36.603 C 196.000 36.179,196.083 36.017,196.333 35.952 C 196.612 35.879,196.667 35.724,196.667 35.016 C 196.667 34.372,196.727 34.167,196.917 34.167 C 197.097 34.167,197.167 33.981,197.167 33.500 C 197.167 32.944,197.222 32.833,197.500 32.833 C 197.770 32.833,197.833 32.722,197.833 32.250 C 197.833 31.863,197.911 31.667,198.066 31.667 C 198.365 31.667,198.500 31.301,198.500 30.486 C 198.500 30.017,198.570 29.833,198.750 29.833 C 198.966 29.833,199.000 30.426,199.000 34.167 L 199.000 38.500 198.073 38.500 L 197.146 38.500 197.198 39.042 L 197.250 39.583 201.542 39.628 L 205.833 39.672 205.833 39.086 L 205.833 38.500 204.917 38.500 L 204.000 38.500 204.000 32.000 L 204.000 25.500 204.917 25.500 L 205.833 25.500 205.833 24.917 L 205.833 24.333 202.167 24.333 L 198.500 24.333 198.500 24.917 C 198.500 25.389,198.437 25.500,198.167 25.500 C 197.889 25.500,197.833 25.611,197.833 26.167 C 197.833 26.623,197.761 26.833,197.603 26.833 C 197.340 26.833,197.172 27.333,197.169 28.125 C 197.167 28.494,197.087 28.667,196.917 28.667 C 196.742 28.667,196.667 28.843,196.667 29.250 C 196.667 29.722,196.603 29.833,196.333 29.833 C 196.068 29.833,196.000 29.944,196.000 30.380 C 196.000 30.720,195.874 31.034,195.667 31.211 C 195.483 31.368,195.333 31.685,195.333 31.915 C 195.333 32.176,195.239 32.333,195.083 32.333 C 194.913 32.333,194.833 32.161,194.831 31.792 C 194.828 31.000,194.660 30.500,194.397 30.500 C 194.244 30.500,194.167 30.300,194.167 29.901 C 194.167 29.442,194.089 29.282,193.833 29.215 C 193.583 29.149,193.500 28.988,193.500 28.564 C 193.500 28.174,193.423 28.000,193.250 28.000 C 193.098 28.000,193.000 27.845,193.000 27.604 C 193.000 26.853,192.791 26.167,192.563 26.167 C 192.412 26.167,192.333 25.967,192.333 25.583 C 192.333 25.161,192.260 25.000,192.068 25.000 C 191.922 25.000,191.763 24.850,191.715 24.667 C 191.631 24.347,191.488 24.333,188.314 24.333 L 185.000 24.333 185.000 24.917 M209.500 24.917 C 209.500 25.486,209.516 25.500,210.167 25.500 C 210.722 25.500,210.833 25.556,210.833 25.833 C 210.833 26.019,210.944 26.167,211.083 26.167 C 211.301 26.167,211.333 26.926,211.333 32.000 C 211.333 37.074,211.301 37.833,211.083 37.833 C 210.944 37.833,210.833 37.981,210.833 38.167 C 210.833 38.444,210.722 38.500,210.167 38.500 C 209.516 38.500,209.500 38.514,209.500 39.083 L 209.500 39.667 216.250 39.667 L 223.000 39.667 223.000 38.186 C 223.000 36.846,223.032 36.697,223.333 36.618 C 223.627 36.542,223.667 36.391,223.667 35.349 L 223.667 34.167 222.750 34.167 L 221.833 34.167 221.833 34.732 C 221.833 35.071,221.737 35.335,221.593 35.390 C 221.460 35.441,221.302 35.749,221.241 36.075 C 221.177 36.415,221.031 36.667,220.898 36.667 C 220.771 36.667,220.667 36.779,220.667 36.917 C 220.667 37.083,220.501 37.167,220.173 37.167 C 219.849 37.167,219.617 37.282,219.500 37.500 C 219.342 37.795,219.151 37.833,217.847 37.833 C 216.512 37.833,216.364 37.802,216.285 37.500 C 216.237 37.317,216.078 37.167,215.932 37.167 C 215.703 37.167,215.667 36.871,215.667 35.000 C 215.667 32.944,215.684 32.833,216.000 32.833 C 216.194 32.833,216.333 32.944,216.333 33.099 C 216.333 33.245,216.483 33.404,216.667 33.452 C 216.850 33.500,217.000 33.645,217.000 33.775 C 217.000 33.904,217.112 34.054,217.250 34.106 C 217.412 34.168,217.500 34.427,217.500 34.838 C 217.500 35.635,217.637 36.000,217.934 36.000 C 218.062 36.000,218.167 36.111,218.167 36.247 C 218.167 36.518,218.876 36.763,219.157 36.589 C 219.274 36.517,219.333 34.940,219.333 31.907 L 219.333 27.333 218.750 27.333 C 218.290 27.333,218.167 27.400,218.167 27.647 C 218.167 27.821,218.018 28.000,217.833 28.048 C 217.555 28.121,217.500 28.276,217.500 28.984 C 217.500 29.628,217.440 29.833,217.250 29.833 C 217.111 29.833,217.000 29.981,217.000 30.167 C 217.000 30.389,216.889 30.500,216.667 30.500 C 216.481 30.500,216.333 30.611,216.333 30.750 C 216.333 30.889,216.185 31.000,216.000 31.000 C 215.682 31.000,215.667 30.889,215.667 28.583 L 215.667 26.167 217.231 26.167 C 218.654 26.167,218.802 26.197,218.882 26.500 C 218.945 26.743,219.109 26.833,219.484 26.833 C 219.832 26.833,220.000 26.915,220.000 27.083 C 220.000 27.222,220.148 27.333,220.333 27.333 C 220.602 27.333,220.667 27.444,220.667 27.908 C 220.667 28.230,220.771 28.542,220.902 28.617 C 221.032 28.690,221.163 28.975,221.194 29.250 C 221.244 29.695,221.318 29.756,221.875 29.802 L 222.500 29.853 222.500 27.093 L 222.500 24.333 216.000 24.333 L 209.500 24.333 209.500 24.917 M227.397 24.574 C 227.165 25.178,227.399 25.415,228.276 25.466 C 229.108 25.515,229.136 25.533,229.241 26.091 C 229.305 26.434,229.446 26.667,229.591 26.667 C 229.798 26.667,229.833 27.475,229.833 32.250 C 229.833 37.248,229.805 37.833,229.568 37.833 C 229.422 37.833,229.264 37.980,229.217 38.159 C 229.149 38.419,228.961 38.494,228.274 38.534 C 227.444 38.582,227.417 38.599,227.417 39.083 L 227.417 39.583 233.208 39.627 C 238.916 39.670,239.000 39.666,239.000 39.335 C 239.000 39.055,239.110 39.000,239.667 39.000 C 240.123 39.000,240.333 38.927,240.333 38.769 C 240.333 38.643,240.483 38.500,240.667 38.452 C 240.850 38.404,241.000 38.245,241.000 38.099 C 241.000 37.953,241.112 37.833,241.250 37.833 C 241.389 37.833,241.500 37.685,241.500 37.500 C 241.500 37.278,241.611 37.167,241.833 37.167 C 242.101 37.167,242.167 37.056,242.167 36.603 C 242.167 36.179,242.250 36.017,242.500 35.952 C 242.755 35.885,242.833 35.724,242.833 35.266 C 242.833 34.844,242.907 34.667,243.083 34.667 C 243.294 34.667,243.333 34.287,243.333 32.250 C 243.333 30.213,243.294 29.833,243.083 29.833 C 242.894 29.833,242.833 29.628,242.833 28.984 C 242.833 28.276,242.778 28.121,242.500 28.048 C 242.250 27.983,242.167 27.821,242.167 27.397 C 242.167 26.944,242.101 26.833,241.833 26.833 C 241.611 26.833,241.500 26.722,241.500 26.500 C 241.500 26.317,241.393 26.167,241.261 26.167 C 241.130 26.167,240.975 26.017,240.917 25.833 C 240.839 25.588,240.664 25.500,240.258 25.500 C 239.846 25.500,239.683 25.415,239.618 25.167 C 239.556 24.927,239.391 24.833,239.033 24.833 C 238.745 24.833,238.495 24.728,238.440 24.583 C 238.298 24.215,227.539 24.206,227.397 24.574 M247.167 24.917 L 247.167 25.500 248.083 25.500 L 249.000 25.500 249.000 26.083 C 249.000 26.491,249.075 26.667,249.250 26.667 C 249.467 26.667,249.500 27.398,249.500 32.250 C 249.500 37.102,249.467 37.833,249.250 37.833 C 249.111 37.833,249.000 37.981,249.000 38.167 C 249.000 38.460,248.889 38.500,248.083 38.500 L 247.167 38.500 247.167 39.083 L 247.167 39.667 251.417 39.667 L 255.667 39.667 255.667 39.083 C 255.667 38.532,255.636 38.500,255.103 38.500 C 254.679 38.500,254.517 38.417,254.452 38.167 C 254.404 37.983,254.245 37.833,254.099 37.833 C 253.861 37.833,253.833 37.226,253.833 32.000 C 253.833 26.278,253.840 26.167,254.167 26.167 C 254.389 26.167,254.500 26.056,254.500 25.833 C 254.500 25.563,254.611 25.500,255.083 25.500 C 255.639 25.500,255.667 25.472,255.667 24.917 L 255.667 24.333 251.417 24.333 L 247.167 24.333 247.167 24.917 M286.500 24.917 L 286.500 25.500 287.417 25.500 C 288.222 25.500,288.333 25.540,288.333 25.833 C 288.333 26.056,288.444 26.167,288.667 26.167 C 288.994 26.167,289.000 26.278,289.000 32.000 C 289.000 37.722,288.994 37.833,288.667 37.833 C 288.444 37.833,288.333 37.944,288.333 38.167 C 288.333 38.460,288.222 38.500,287.417 38.500 L 286.500 38.500 286.500 39.083 L 286.500 39.667 292.572 39.667 C 298.498 39.667,298.647 39.659,298.750 39.333 C 298.824 39.099,299.002 39.000,299.350 39.000 C 299.621 39.000,299.884 38.895,299.933 38.766 C 299.983 38.638,300.168 38.495,300.345 38.449 C 300.588 38.385,300.667 38.217,300.667 37.766 C 300.667 37.344,300.741 37.167,300.917 37.167 C 301.124 37.167,301.167 36.852,301.167 35.333 C 301.167 33.815,301.124 33.500,300.917 33.500 C 300.742 33.500,300.667 33.324,300.667 32.917 C 300.667 32.444,300.603 32.333,300.333 32.333 C 300.139 32.333,300.000 32.222,300.000 32.068 C 300.000 31.922,299.850 31.763,299.667 31.715 C 299.482 31.667,299.333 31.488,299.333 31.314 C 299.333 31.111,299.451 31.000,299.667 31.000 C 299.850 31.000,300.000 30.893,300.000 30.761 C 300.000 30.630,300.150 30.475,300.333 30.417 C 300.909 30.234,300.812 26.167,300.232 26.167 C 300.104 26.167,300.000 26.017,300.000 25.833 C 300.000 25.611,299.889 25.500,299.667 25.500 C 299.483 25.500,299.333 25.396,299.333 25.268 C 299.333 25.013,298.983 24.833,298.486 24.833 C 298.311 24.833,298.167 24.721,298.167 24.583 C 298.167 24.366,297.407 24.333,292.333 24.333 L 286.500 24.333 286.500 24.917 M345.500 24.917 C 345.500 25.486,345.516 25.500,346.167 25.500 C 346.722 25.500,346.833 25.556,346.833 25.833 C 346.833 26.019,346.944 26.167,347.083 26.167 C 347.301 26.167,347.333 26.926,347.333 32.000 C 347.333 37.074,347.301 37.833,347.083 37.833 C 346.944 37.833,346.833 37.981,346.833 38.167 C 346.833 38.444,346.722 38.500,346.167 38.500 C 345.516 38.500,345.500 38.514,345.500 39.083 L 345.500 39.667 349.500 39.667 L 353.500 39.667 353.500 39.083 L 353.500 38.500 352.583 38.500 L 351.667 38.500 351.667 36.232 C 351.667 34.233,351.698 33.976,351.930 34.066 C 352.075 34.121,352.225 34.167,352.264 34.167 C 352.302 34.167,352.333 34.279,352.333 34.417 C 352.333 34.556,352.481 34.667,352.667 34.667 C 352.889 34.667,353.000 34.778,353.000 35.000 C 353.000 35.185,353.111 35.333,353.250 35.333 C 353.418 35.333,353.500 35.502,353.500 35.849 C 353.500 36.224,353.591 36.388,353.833 36.452 C 354.018 36.500,354.167 36.679,354.167 36.853 C 354.167 37.056,354.285 37.167,354.500 37.167 C 354.722 37.167,354.833 37.278,354.833 37.500 C 354.833 37.685,354.944 37.833,355.083 37.833 C 355.221 37.833,355.333 37.977,355.333 38.153 C 355.333 38.650,355.513 39.000,355.768 39.000 C 355.896 39.000,356.000 39.150,356.000 39.333 C 356.000 39.655,356.111 39.667,359.083 39.667 L 362.167 39.667 362.167 39.083 C 362.167 38.623,362.100 38.500,361.853 38.500 C 361.679 38.500,361.500 38.351,361.452 38.167 C 361.404 37.983,361.245 37.833,361.099 37.833 C 360.953 37.833,360.833 37.718,360.833 37.578 C 360.833 37.438,360.721 37.280,360.583 37.227 C 360.446 37.174,360.333 37.027,360.333 36.899 C 360.333 36.771,360.183 36.667,360.000 36.667 C 359.778 36.667,359.667 36.556,359.667 36.333 C 359.667 36.111,359.556 36.000,359.333 36.000 C 359.063 36.000,359.000 35.889,359.000 35.417 C 359.000 35.009,358.925 34.833,358.750 34.833 C 358.611 34.833,358.500 34.685,358.500 34.500 C 358.500 34.278,358.389 34.167,358.167 34.167 C 357.944 34.167,357.833 34.056,357.833 33.833 C 357.833 33.611,357.722 33.500,357.500 33.500 C 357.278 33.500,357.167 33.389,357.167 33.167 C 357.167 32.944,357.278 32.833,357.500 32.833 C 357.685 32.833,357.833 32.722,357.833 32.583 C 357.833 32.409,358.009 32.333,358.417 32.333 C 358.877 32.333,359.000 32.267,359.000 32.019 C 359.000 31.846,359.149 31.667,359.333 31.618 C 359.649 31.536,359.667 31.391,359.667 28.849 C 359.667 26.278,359.653 26.167,359.333 26.167 C 359.111 26.167,359.000 26.056,359.000 25.833 C 359.000 25.648,358.889 25.500,358.750 25.500 C 358.613 25.500,358.500 25.394,358.500 25.265 C 358.500 25.120,358.243 24.986,357.833 24.917 C 357.423 24.847,357.167 24.713,357.167 24.569 C 357.167 24.370,356.246 24.333,351.333 24.333 L 345.500 24.333 345.500 24.917 M364.667 24.917 L 364.667 25.500 365.583 25.500 L 366.500 25.500 366.500 26.083 C 366.500 26.491,366.575 26.667,366.750 26.667 C 366.967 26.667,367.000 27.398,367.000 32.250 C 367.000 37.102,366.967 37.833,366.750 37.833 C 366.611 37.833,366.500 37.981,366.500 38.167 C 366.500 38.460,366.389 38.500,365.583 38.500 L 364.667 38.500 364.667 39.083 L 364.667 39.667 370.432 39.667 C 376.058 39.667,376.200 39.659,376.285 39.333 C 376.351 39.083,376.512 39.000,376.936 39.000 C 377.305 39.000,377.500 38.920,377.500 38.769 C 377.500 38.643,377.650 38.500,377.833 38.452 C 378.017 38.404,378.167 38.254,378.167 38.118 C 378.167 37.983,378.317 37.833,378.500 37.785 C 378.683 37.737,378.833 37.578,378.833 37.432 C 378.833 37.286,378.946 37.167,379.083 37.167 C 379.258 37.167,379.333 36.991,379.333 36.583 C 379.333 36.111,379.397 36.000,379.667 36.000 C 379.943 36.000,380.000 35.889,380.000 35.353 C 380.000 34.846,380.072 34.687,380.333 34.618 C 380.646 34.537,380.667 34.391,380.667 32.250 C 380.667 30.109,380.646 29.963,380.333 29.882 C 380.052 29.808,380.000 29.654,380.000 28.897 C 380.000 28.111,379.959 28.000,379.667 28.000 C 379.397 28.000,379.333 27.889,379.333 27.417 C 379.333 27.031,379.255 26.833,379.103 26.833 C 378.976 26.833,378.833 26.683,378.785 26.500 C 378.737 26.317,378.578 26.167,378.432 26.167 C 378.278 26.167,378.167 26.027,378.167 25.833 C 378.167 25.563,378.056 25.500,377.583 25.500 C 377.196 25.500,377.000 25.422,377.000 25.268 C 377.000 24.999,376.645 24.833,376.070 24.833 C 375.823 24.833,375.667 24.737,375.667 24.583 C 375.667 24.366,374.944 24.333,370.167 24.333 L 364.667 24.333 364.667 24.917 M95.715 25.833 C 95.782 26.089,95.942 26.167,96.401 26.167 C 96.889 26.167,97.000 26.229,97.000 26.500 C 97.000 26.685,97.111 26.833,97.250 26.833 C 97.388 26.833,97.500 26.977,97.500 27.153 C 97.500 27.650,97.680 28.000,97.934 28.000 C 98.103 28.000,98.167 28.234,98.167 28.849 C 98.167 29.558,98.222 29.712,98.500 29.785 C 98.814 29.867,98.833 30.012,98.833 32.353 C 98.833 34.722,98.818 34.833,98.500 34.833 C 98.207 34.833,98.167 34.944,98.167 35.750 C 98.167 36.556,98.126 36.667,97.833 36.667 C 97.648 36.667,97.500 36.778,97.500 36.917 C 97.500 37.054,97.388 37.167,97.250 37.167 C 97.111 37.167,97.000 37.315,97.000 37.500 C 97.000 37.722,96.889 37.833,96.667 37.833 C 96.444 37.833,96.333 37.944,96.333 38.167 C 96.333 38.460,96.222 38.500,95.417 38.500 C 94.611 38.500,94.500 38.460,94.500 38.167 C 94.500 37.944,94.389 37.833,94.167 37.833 C 93.983 37.833,93.833 37.726,93.833 37.595 C 93.833 37.463,93.683 37.308,93.500 37.250 C 93.317 37.192,93.167 37.037,93.167 36.905 C 93.167 36.774,93.054 36.667,92.917 36.667 C 92.737 36.667,92.667 36.483,92.667 36.014 C 92.667 35.199,92.532 34.833,92.232 34.833 C 91.802 34.833,91.901 29.231,92.333 29.118 C 92.612 29.046,92.667 28.891,92.667 28.182 C 92.667 27.539,92.727 27.333,92.917 27.333 C 93.054 27.333,93.167 27.230,93.167 27.103 C 93.167 26.976,93.317 26.833,93.500 26.785 C 93.683 26.737,93.833 26.578,93.833 26.432 C 93.833 26.240,93.994 26.167,94.417 26.167 C 94.889 26.167,95.000 26.103,95.000 25.833 C 95.000 25.618,95.111 25.500,95.314 25.500 C 95.488 25.500,95.667 25.649,95.715 25.833 M314.167 25.833 C 314.167 26.101,314.278 26.167,314.731 26.167 C 315.154 26.167,315.316 26.250,315.382 26.500 C 315.430 26.683,315.588 26.833,315.734 26.833 C 315.920 26.833,316.000 26.988,316.000 27.349 C 316.000 27.724,316.091 27.888,316.333 27.952 C 316.610 28.024,316.667 28.179,316.667 28.858 C 316.667 29.432,316.741 29.706,316.917 29.773 C 317.123 29.852,317.167 30.299,317.167 32.351 C 317.167 34.446,317.128 34.833,316.917 34.833 C 316.725 34.833,316.667 35.046,316.667 35.750 C 316.667 36.556,316.626 36.667,316.333 36.667 C 316.148 36.667,316.000 36.778,316.000 36.917 C 316.000 37.054,315.880 37.167,315.734 37.167 C 315.588 37.167,315.430 37.317,315.382 37.500 C 315.334 37.683,315.191 37.833,315.064 37.833 C 314.937 37.833,314.833 37.983,314.833 38.167 C 314.833 38.459,314.722 38.500,313.936 38.500 C 313.179 38.500,313.025 38.448,312.952 38.167 C 312.904 37.983,312.745 37.833,312.599 37.833 C 312.453 37.833,312.333 37.726,312.333 37.595 C 312.333 37.463,312.183 37.308,312.000 37.250 C 311.817 37.192,311.667 37.037,311.667 36.905 C 311.667 36.774,311.517 36.667,311.333 36.667 C 311.040 36.667,311.000 36.556,311.000 35.750 C 311.000 35.046,310.942 34.833,310.750 34.833 C 310.538 34.833,310.500 34.407,310.500 32.000 C 310.500 29.593,310.538 29.167,310.750 29.167 C 310.942 29.167,311.000 28.954,311.000 28.250 C 311.000 27.444,311.040 27.333,311.333 27.333 C 311.517 27.333,311.667 27.230,311.667 27.103 C 311.667 26.976,311.817 26.833,312.000 26.785 C 312.183 26.737,312.333 26.578,312.333 26.432 C 312.333 26.240,312.494 26.167,312.917 26.167 C 313.389 26.167,313.500 26.103,313.500 25.833 C 313.500 25.611,313.611 25.500,313.833 25.500 C 314.056 25.500,314.167 25.611,314.167 25.833 M236.048 26.500 C 236.096 26.683,236.255 26.833,236.401 26.833 C 236.547 26.833,236.667 26.946,236.667 27.083 C 236.667 27.221,236.779 27.333,236.917 27.333 C 237.054 27.333,237.167 27.453,237.167 27.599 C 237.167 27.745,237.317 27.904,237.500 27.952 C 237.781 28.025,237.833 28.179,237.833 28.936 C 237.833 29.722,237.875 29.833,238.167 29.833 C 238.483 29.833,238.500 29.944,238.500 32.000 C 238.500 34.056,238.483 34.167,238.167 34.167 C 237.874 34.167,237.833 34.278,237.833 35.083 C 237.833 35.756,237.771 36.000,237.601 36.000 C 237.346 36.000,237.167 36.350,237.167 36.847 C 237.167 37.023,237.054 37.167,236.917 37.167 C 236.778 37.167,236.667 37.315,236.667 37.500 C 236.667 37.804,236.556 37.833,235.417 37.833 L 234.167 37.833 234.167 32.000 L 234.167 26.167 235.064 26.167 C 235.821 26.167,235.975 26.219,236.048 26.500 M294.500 26.399 C 294.500 26.654,294.850 26.833,295.347 26.833 C 295.601 26.833,295.667 26.953,295.667 27.417 C 295.667 27.889,295.730 28.000,296.000 28.000 C 296.222 28.000,296.333 28.111,296.333 28.333 C 296.333 28.556,296.222 28.667,296.000 28.667 C 295.730 28.667,295.667 28.778,295.667 29.250 C 295.667 29.645,295.590 29.833,295.428 29.833 C 295.297 29.833,295.142 29.983,295.083 30.167 C 294.997 30.440,294.831 30.500,294.169 30.500 C 293.679 30.500,293.328 30.582,293.277 30.708 C 293.231 30.823,293.187 29.848,293.180 28.542 L 293.167 26.167 293.833 26.167 C 294.292 26.167,294.500 26.239,294.500 26.399 M354.215 26.500 C 354.263 26.683,354.422 26.833,354.568 26.833 C 354.760 26.833,354.833 26.994,354.833 27.417 C 354.833 27.824,354.909 28.000,355.083 28.000 C 355.275 28.000,355.333 28.213,355.333 28.917 C 355.333 29.620,355.275 29.833,355.083 29.833 C 354.944 29.833,354.833 29.981,354.833 30.167 C 354.833 30.389,354.722 30.500,354.500 30.500 C 354.315 30.500,354.167 30.611,354.167 30.750 C 354.167 30.925,353.991 31.000,353.583 31.000 C 353.111 31.000,353.000 31.063,353.000 31.333 C 353.000 31.611,352.889 31.667,352.333 31.667 L 351.667 31.667 351.667 28.917 L 351.667 26.167 352.897 26.167 C 353.988 26.167,354.138 26.205,354.215 26.500 M373.215 26.500 C 373.263 26.683,373.422 26.833,373.568 26.833 C 373.714 26.833,373.833 26.946,373.833 27.083 C 373.833 27.222,373.981 27.333,374.167 27.333 C 374.389 27.333,374.500 27.444,374.500 27.667 C 374.500 27.852,374.611 28.000,374.750 28.000 C 374.930 28.000,375.000 28.184,375.000 28.653 C 375.000 29.467,375.135 29.833,375.434 29.833 C 375.621 29.833,375.667 30.259,375.667 32.000 C 375.667 33.727,375.620 34.167,375.438 34.167 C 375.209 34.167,375.000 34.853,375.000 35.604 C 375.000 35.845,374.902 36.000,374.750 36.000 C 374.575 36.000,374.500 36.176,374.500 36.583 C 374.500 37.056,374.437 37.167,374.167 37.167 C 373.944 37.167,373.833 37.278,373.833 37.500 C 373.833 37.804,373.722 37.833,372.583 37.833 L 371.333 37.833 371.333 32.000 L 371.333 26.167 372.231 26.167 C 372.988 26.167,373.141 26.219,373.215 26.500 M146.167 31.667 C 146.167 32.222,146.222 32.333,146.500 32.333 C 146.770 32.333,146.833 32.444,146.833 32.917 L 146.833 33.500 145.917 33.500 L 145.000 33.500 145.000 32.917 C 145.000 32.509,145.075 32.333,145.250 32.333 C 145.431 32.333,145.500 32.148,145.500 31.667 C 145.500 31.111,145.556 31.000,145.833 31.000 C 146.111 31.000,146.167 31.111,146.167 31.667 M333.167 32.269 C 333.167 32.722,333.232 32.833,333.500 32.833 C 333.722 32.833,333.833 32.944,333.833 33.167 C 333.833 33.470,333.722 33.500,332.583 33.500 C 331.444 33.500,331.333 33.470,331.333 33.167 C 331.333 32.944,331.444 32.833,331.667 32.833 C 331.935 32.833,332.000 32.722,332.000 32.262 C 332.000 31.853,332.083 31.673,332.292 31.629 C 332.908 31.497,333.167 31.686,333.167 32.269 M266.833 32.250 C 266.833 32.657,266.909 32.833,267.083 32.833 C 267.222 32.833,267.333 32.981,267.333 33.167 C 267.333 33.468,267.222 33.500,266.167 33.500 C 265.111 33.500,265.000 33.468,265.000 33.167 C 265.000 32.981,265.111 32.833,265.250 32.833 C 265.425 32.833,265.500 32.657,265.500 32.250 C 265.500 31.681,265.516 31.667,266.167 31.667 C 266.817 31.667,266.833 31.681,266.833 32.250 M295.118 33.167 C 295.166 33.350,295.309 33.500,295.436 33.500 C 295.563 33.500,295.667 33.620,295.667 33.766 C 295.667 33.912,295.817 34.070,296.000 34.118 C 296.295 34.196,296.333 34.346,296.333 35.436 C 296.333 36.556,296.303 36.667,296.000 36.667 C 295.815 36.667,295.667 36.778,295.667 36.917 C 295.667 37.054,295.554 37.167,295.417 37.167 C 295.278 37.167,295.167 37.315,295.167 37.500 C 295.167 37.796,295.056 37.833,294.167 37.833 L 293.167 37.833 293.167 35.333 L 293.167 32.833 294.099 32.833 C 294.891 32.833,295.044 32.883,295.118 33.167 " stroke="none" fill="#040404" fill-rule="evenodd"></path><path id="path2" d="M28.500 3.181 C 28.500 3.517,28.434 3.527,26.533 3.473 C 24.655 3.419,24.566 3.432,24.574 3.750 C 24.582 4.044,24.459 4.089,23.542 4.133 C 22.805 4.168,22.500 4.248,22.500 4.407 C 22.500 4.690,22.131 4.833,21.403 4.833 C 21.024 4.833,20.833 4.912,20.833 5.069 C 20.833 5.213,20.577 5.347,20.167 5.417 C 19.757 5.486,19.500 5.620,19.500 5.765 C 19.500 5.919,19.313 6.000,18.954 6.000 C 18.614 6.000,18.300 6.126,18.122 6.333 C 17.965 6.517,17.703 6.667,17.539 6.667 C 17.375 6.667,17.112 6.817,16.955 7.000 C 16.798 7.183,16.519 7.333,16.335 7.333 C 16.151 7.333,16.000 7.434,16.000 7.557 C 16.000 7.679,15.813 7.865,15.583 7.970 C 15.354 8.074,15.167 8.236,15.167 8.330 C 15.167 8.423,15.010 8.500,14.819 8.500 C 14.617 8.500,14.096 8.884,13.576 9.417 C 13.084 9.921,12.620 10.333,12.544 10.333 C 12.370 10.333,11.500 11.319,11.500 11.517 C 11.500 11.599,11.406 11.670,11.292 11.674 C 11.177 11.679,10.933 11.874,10.750 12.108 C 10.567 12.342,9.985 12.973,9.458 13.509 C 8.911 14.065,8.500 14.632,8.500 14.830 C 8.500 15.021,8.387 15.220,8.250 15.273 C 8.112 15.326,8.000 15.471,8.000 15.595 C 8.000 15.720,7.850 15.902,7.667 16.000 C 7.474 16.103,7.333 16.349,7.333 16.583 C 7.333 16.818,7.193 17.063,7.000 17.167 C 6.817 17.265,6.667 17.495,6.667 17.678 C 6.667 17.861,6.554 18.054,6.416 18.107 C 6.278 18.160,6.119 18.490,6.063 18.841 C 6.007 19.192,5.857 19.519,5.730 19.568 C 5.604 19.616,5.500 19.881,5.500 20.156 C 5.500 20.484,5.386 20.716,5.167 20.833 C 4.910 20.971,4.833 21.182,4.833 21.750 C 4.833 22.318,4.756 22.529,4.500 22.667 C 4.228 22.812,4.167 23.016,4.167 23.771 C 4.167 24.543,4.114 24.712,3.848 24.781 C 3.558 24.857,3.529 25.036,3.524 26.767 C 3.518 28.814,3.446 29.135,3.068 28.821 C 2.868 28.654,2.833 28.997,2.833 31.156 C 2.833 32.548,2.893 33.649,2.966 33.604 C 3.266 33.419,3.473 33.799,3.500 34.584 C 3.569 36.532,3.507 37.167,3.250 37.167 C 2.951 37.167,2.920 37.431,3.198 37.603 C 3.308 37.670,3.426 37.638,3.462 37.531 C 3.647 36.976,4.167 37.691,4.167 38.500 C 4.167 39.151,4.236 39.359,4.500 39.500 C 4.753 39.635,4.833 39.849,4.833 40.385 C 4.833 40.886,4.931 41.176,5.167 41.378 C 5.363 41.546,5.500 41.870,5.500 42.165 C 5.500 42.500,5.583 42.667,5.750 42.667 C 5.985 42.667,6.084 43.034,6.029 43.704 C 6.016 43.862,6.154 44.071,6.336 44.168 C 6.518 44.265,6.667 44.443,6.667 44.563 C 6.667 44.683,6.817 44.917,7.000 45.083 C 7.183 45.249,7.333 45.521,7.333 45.687 C 7.333 45.853,7.483 46.069,7.667 46.167 C 7.850 46.265,8.000 46.484,8.000 46.655 C 8.000 46.825,8.112 47.008,8.250 47.060 C 8.387 47.113,8.500 47.278,8.500 47.426 C 8.500 47.574,8.913 48.098,9.417 48.590 C 9.921 49.083,10.333 49.596,10.333 49.731 C 10.333 49.865,10.540 50.130,10.792 50.319 C 11.446 50.810,11.546 50.907,11.898 51.396 C 12.072 51.637,12.318 51.833,12.445 51.833 C 12.573 51.833,12.719 51.943,12.771 52.077 C 12.822 52.211,13.007 52.366,13.182 52.422 C 13.357 52.477,13.500 52.630,13.500 52.761 C 13.500 52.893,13.609 53.000,13.742 53.000 C 13.875 53.000,14.049 53.118,14.130 53.262 C 14.275 53.522,14.726 53.824,15.463 54.157 C 15.671 54.251,15.884 54.437,15.935 54.571 C 15.986 54.704,16.250 54.862,16.520 54.921 C 16.891 55.003,16.990 55.101,16.921 55.319 C 16.845 55.559,16.913 55.597,17.316 55.538 C 17.686 55.484,17.849 55.551,17.991 55.817 C 18.115 56.049,18.341 56.167,18.661 56.167 C 18.999 56.167,19.176 56.268,19.251 56.502 C 19.309 56.687,19.431 56.793,19.521 56.737 C 19.816 56.555,20.500 56.828,20.500 57.128 C 20.500 57.371,20.632 57.408,21.332 57.359 C 22.169 57.301,22.686 57.679,22.190 57.986 C 22.084 58.051,22.542 58.100,23.207 58.094 L 24.417 58.083 24.380 58.583 C 24.360 58.858,24.398 59.001,24.464 58.901 C 24.831 58.340,28.095 58.453,27.946 59.021 C 27.868 59.319,28.021 59.333,31.194 59.333 C 34.363 59.333,34.518 59.318,34.424 59.023 C 34.305 58.648,35.669 58.423,36.993 58.598 C 37.713 58.694,37.794 58.670,37.881 58.336 C 37.968 58.002,38.065 57.973,38.905 58.026 C 39.697 58.075,39.834 58.041,39.834 57.795 C 39.833 57.458,40.444 57.263,41.169 57.369 C 41.557 57.426,41.667 57.379,41.667 57.156 C 41.667 56.837,41.990 56.667,42.597 56.667 C 42.844 56.667,43.000 56.570,43.000 56.417 C 43.000 56.156,43.153 56.108,43.804 56.162 C 44.071 56.184,44.219 56.087,44.282 55.847 C 44.347 55.597,44.506 55.500,44.853 55.500 C 45.154 55.500,45.333 55.413,45.333 55.266 C 45.333 55.138,45.558 54.954,45.833 54.858 C 46.108 54.762,46.333 54.612,46.333 54.525 C 46.333 54.438,46.540 54.294,46.792 54.206 C 47.044 54.118,47.502 53.811,47.809 53.523 C 48.117 53.235,48.417 53.000,48.477 53.000 C 48.537 53.000,48.827 52.738,49.121 52.417 C 49.415 52.096,49.772 51.833,49.914 51.833 C 50.056 51.833,50.313 51.601,50.486 51.317 C 50.659 51.032,51.032 50.659,51.317 50.486 C 51.601 50.313,51.833 50.048,51.833 49.897 C 51.833 49.746,52.096 49.375,52.417 49.073 C 52.737 48.770,53.000 48.445,53.000 48.350 C 53.000 48.256,53.150 48.098,53.333 48.000 C 53.517 47.902,53.667 47.709,53.667 47.572 C 53.667 47.435,53.779 47.280,53.917 47.227 C 54.054 47.174,54.167 47.027,54.167 46.899 C 54.167 46.771,54.309 46.524,54.484 46.350 C 54.658 46.176,54.850 45.876,54.911 45.683 C 54.973 45.491,55.130 45.333,55.261 45.333 C 55.417 45.333,55.500 45.154,55.500 44.818 C 55.500 44.435,55.590 44.279,55.848 44.211 C 56.114 44.141,56.178 44.023,56.118 43.707 C 56.067 43.443,56.152 43.182,56.353 42.981 C 56.525 42.808,56.667 42.560,56.667 42.430 C 56.667 42.011,56.863 41.667,57.101 41.667 C 57.268 41.667,57.333 41.435,57.333 40.839 C 57.333 40.182,57.402 39.975,57.667 39.833 C 57.939 39.688,58.000 39.484,58.000 38.729 C 58.000 37.986,58.058 37.787,58.292 37.726 C 58.545 37.660,58.587 37.422,58.602 35.974 C 58.619 34.357,58.782 33.846,59.200 34.104 C 59.274 34.149,59.333 32.841,59.333 31.196 C 59.333 28.431,59.310 28.199,59.026 28.125 C 58.675 28.033,58.449 26.450,58.612 25.233 C 58.693 24.629,58.661 24.537,58.337 24.453 C 58.001 24.365,57.974 24.270,58.026 23.366 C 58.071 22.586,58.035 22.393,57.858 22.462 C 57.532 22.588,57.339 22.185,57.336 21.375 C 57.334 20.867,57.265 20.667,57.091 20.667 C 56.944 20.667,56.804 20.428,56.735 20.061 C 56.672 19.727,56.490 19.323,56.330 19.163 C 56.149 18.982,56.069 18.716,56.118 18.459 C 56.178 18.144,56.114 18.025,55.848 17.956 C 55.633 17.899,55.500 17.729,55.500 17.510 C 55.500 17.316,55.394 17.116,55.265 17.066 C 55.136 17.016,54.981 16.778,54.920 16.537 C 54.859 16.296,54.665 15.997,54.488 15.873 C 54.311 15.749,54.167 15.540,54.167 15.407 C 54.167 15.275,54.097 15.167,54.011 15.167 C 53.926 15.167,53.803 14.998,53.739 14.792 C 53.675 14.585,53.332 14.147,52.978 13.817 C 52.623 13.488,52.333 13.139,52.333 13.043 C 52.333 12.947,52.221 12.826,52.083 12.773 C 51.946 12.720,51.833 12.583,51.833 12.469 C 51.833 12.266,51.052 11.500,50.845 11.500 C 50.789 11.500,50.601 11.237,50.428 10.917 C 50.256 10.596,49.994 10.333,49.848 10.333 C 49.701 10.333,49.353 10.085,49.074 9.781 C 48.795 9.477,48.439 9.179,48.283 9.119 C 48.127 9.059,48.000 8.896,48.000 8.755 C 48.000 8.614,47.856 8.500,47.679 8.500 C 47.502 8.500,47.245 8.387,47.107 8.250 C 46.970 8.112,46.781 8.000,46.688 8.000 C 46.595 8.000,46.418 7.855,46.294 7.678 C 46.170 7.502,45.871 7.307,45.630 7.247 C 45.388 7.186,45.150 7.031,45.101 6.902 C 45.051 6.772,44.851 6.667,44.656 6.667 C 44.442 6.667,44.268 6.535,44.215 6.333 C 44.147 6.072,43.988 6.000,43.475 6.000 C 43.069 6.000,42.789 5.912,42.733 5.766 C 42.684 5.638,42.386 5.484,42.072 5.425 C 41.732 5.362,41.500 5.220,41.500 5.076 C 41.500 4.896,41.285 4.833,40.673 4.833 C 40.023 4.833,39.808 4.764,39.671 4.508 C 39.535 4.255,39.287 4.172,38.540 4.133 C 37.730 4.091,37.576 4.032,37.536 3.750 C 37.491 3.435,37.383 3.420,35.577 3.473 C 33.734 3.527,33.667 3.517,33.667 3.181 C 33.667 2.844,33.591 2.833,31.083 2.833 C 28.576 2.833,28.500 2.844,28.500 3.181 M47.178 17.839 C 47.621 18.077,47.690 38.635,47.249 39.001 C 46.981 39.223,45.593 38.953,45.401 38.641 C 45.351 38.561,45.072 38.385,44.780 38.251 C 44.489 38.117,44.137 37.939,44.000 37.856 C 43.862 37.774,43.375 37.542,42.917 37.342 C 42.458 37.141,41.884 36.870,41.641 36.739 C 41.398 36.607,41.075 36.500,40.924 36.500 C 40.774 36.500,40.420 36.381,40.138 36.235 C 39.495 35.903,38.245 35.537,36.793 35.258 C 36.175 35.139,35.462 34.963,35.209 34.867 C 34.354 34.543,31.410 34.413,29.556 34.618 L 28.363 34.750 28.618 35.417 C 29.123 36.731,29.095 37.447,28.507 38.265 C 28.027 38.934,28.002 39.026,28.239 39.263 C 28.383 39.406,28.500 39.585,28.500 39.660 C 28.500 39.734,29.025 40.310,29.666 40.939 C 30.308 41.569,30.833 42.221,30.833 42.389 C 30.833 42.742,29.073 44.500,28.719 44.500 C 28.590 44.500,28.266 44.612,28.001 44.750 C 26.437 45.558,25.217 44.939,24.086 42.764 C 23.844 42.298,23.578 41.804,23.496 41.667 C 23.413 41.529,23.151 40.967,22.912 40.417 C 22.673 39.867,22.370 39.218,22.239 38.974 C 22.107 38.731,21.998 38.393,21.995 38.224 C 21.992 38.055,21.880 37.772,21.747 37.596 C 21.613 37.419,21.455 36.911,21.397 36.467 C 21.338 36.023,21.224 35.619,21.145 35.570 C 21.065 35.521,21.000 35.297,21.000 35.073 C 21.000 34.724,20.922 34.667,20.450 34.667 C 19.835 34.667,19.500 34.418,19.500 33.961 C 19.500 33.708,19.443 33.685,19.170 33.832 C 18.663 34.103,18.034 33.856,17.484 33.171 C 17.085 32.675,16.898 32.566,16.561 32.630 C 15.424 32.847,13.767 31.257,14.129 30.297 C 14.252 29.972,14.266 29.685,14.167 29.501 C 14.063 29.307,14.086 29.112,14.237 28.906 C 14.407 28.673,14.416 28.528,14.274 28.300 C 14.135 28.078,14.135 27.922,14.274 27.700 C 14.416 27.472,14.407 27.326,14.236 27.093 C 13.796 26.491,15.652 24.993,16.547 25.227 C 16.794 25.292,17.050 25.137,17.485 24.662 C 18.187 23.895,18.825 23.683,19.226 24.083 C 19.480 24.337,19.500 24.327,19.500 23.934 C 19.500 23.174,19.752 23.147,26.633 23.184 C 31.177 23.209,33.195 23.163,33.443 23.031 C 33.636 22.927,34.332 22.759,34.989 22.657 C 35.646 22.555,36.386 22.366,36.633 22.237 C 36.881 22.108,37.255 22.002,37.465 22.001 C 37.675 22.000,38.141 21.850,38.500 21.667 C 38.859 21.483,39.263 21.333,39.397 21.333 C 39.530 21.333,39.852 21.227,40.111 21.097 C 40.371 20.967,41.296 20.508,42.167 20.077 C 43.038 19.646,44.050 19.116,44.417 18.899 C 44.783 18.682,45.290 18.421,45.542 18.319 C 45.794 18.217,46.000 18.072,46.000 17.996 C 46.000 17.875,46.299 17.746,46.719 17.686 C 46.794 17.675,47.000 17.744,47.178 17.839 M44.167 21.777 C 43.571 22.004,42.821 22.253,42.500 22.331 C 42.179 22.410,41.617 22.589,41.250 22.730 C 40.883 22.870,40.340 22.989,40.042 22.993 C 39.744 22.997,39.500 23.086,39.500 23.191 C 39.500 23.453,42.688 23.241,43.583 22.920 C 43.950 22.789,44.492 22.678,44.788 22.674 C 45.461 22.665,46.004 21.990,45.666 21.582 C 45.416 21.282,45.499 21.271,44.167 21.777 " stroke="none" fill="#0404cb" fill-rule="evenodd"></path><path id="path3" d="M25.111 2.944 C 24.682 3.374,25.054 3.500,26.750 3.500 C 28.389 3.500,28.500 3.479,28.500 3.167 C 28.500 2.830,25.427 2.628,25.111 2.944 M33.667 3.161 C 33.667 3.481,33.768 3.500,35.429 3.500 C 37.017 3.500,37.186 3.471,37.135 3.208 C 37.043 2.724,33.667 2.678,33.667 3.161 M23.086 3.495 C 23.026 3.592,22.915 3.634,22.839 3.587 C 22.764 3.540,22.659 3.614,22.606 3.751 C 22.546 3.908,22.289 4.000,21.911 4.000 C 21.229 4.000,20.609 4.273,20.755 4.508 C 20.810 4.597,20.583 4.667,20.237 4.667 C 19.886 4.667,19.540 4.773,19.435 4.914 C 19.279 5.122,18.884 5.262,18.292 5.321 C 18.223 5.328,18.167 5.446,18.167 5.583 C 18.167 5.752,17.998 5.833,17.651 5.833 C 17.276 5.833,17.112 5.924,17.048 6.167 C 17.000 6.350,16.825 6.500,16.659 6.500 C 16.494 6.500,16.323 6.631,16.282 6.792 C 16.209 7.069,16.204 7.069,16.186 6.792 C 16.175 6.631,16.092 6.500,16.000 6.500 C 15.908 6.500,15.852 6.591,15.875 6.702 C 15.898 6.813,15.748 6.981,15.542 7.075 C 15.335 7.169,15.167 7.332,15.167 7.438 C 15.167 7.543,14.904 7.679,14.583 7.739 C 14.234 7.805,14.000 7.946,14.000 8.091 C 14.000 8.224,13.890 8.333,13.756 8.333 C 13.622 8.333,13.431 8.483,13.333 8.667 C 13.235 8.850,13.045 9.000,12.911 9.000 C 12.777 9.000,12.667 9.107,12.667 9.239 C 12.667 9.370,12.517 9.525,12.333 9.583 C 12.150 9.642,12.000 9.797,12.000 9.928 C 12.000 10.059,11.887 10.167,11.750 10.167 C 11.611 10.167,11.500 10.315,11.500 10.500 C 11.500 10.722,11.389 10.833,11.167 10.833 C 10.981 10.833,10.833 10.944,10.833 11.083 C 10.833 11.222,10.685 11.333,10.500 11.333 C 10.285 11.333,10.167 11.444,10.167 11.647 C 10.167 11.821,10.018 12.000,9.833 12.048 C 9.650 12.096,9.500 12.255,9.500 12.401 C 9.500 12.547,9.387 12.667,9.250 12.667 C 9.075 12.667,9.000 12.843,9.000 13.250 C 9.000 13.872,8.591 14.089,8.448 13.542 C 8.406 13.381,8.363 13.531,8.353 13.875 C 8.337 14.382,8.271 14.500,8.000 14.500 C 7.812 14.500,7.667 14.611,7.667 14.755 C 7.667 14.896,7.554 15.054,7.417 15.106 C 7.262 15.166,7.167 15.419,7.167 15.768 C 7.167 16.222,7.101 16.333,6.833 16.333 C 6.563 16.333,6.500 16.444,6.500 16.917 C 6.500 17.389,6.437 17.500,6.167 17.500 C 5.923 17.500,5.833 17.611,5.833 17.911 C 5.833 18.203,5.763 18.296,5.590 18.230 C 5.361 18.142,5.098 18.690,5.176 19.094 C 5.265 19.557,5.138 20.000,4.917 20.000 C 4.731 20.000,4.667 20.196,4.667 20.760 C 4.667 21.178,4.607 21.483,4.534 21.437 C 4.229 21.249,3.988 21.659,3.973 22.388 C 3.960 23.032,3.904 23.167,3.646 23.167 C 3.366 23.167,3.333 23.308,3.333 24.495 C 3.333 25.607,3.293 25.807,3.083 25.727 C 2.729 25.591,2.715 28.527,3.068 28.821 C 3.446 29.135,3.518 28.814,3.524 26.767 C 3.529 25.036,3.558 24.857,3.848 24.781 C 4.114 24.712,4.167 24.543,4.167 23.771 C 4.167 23.016,4.228 22.812,4.500 22.667 C 4.756 22.529,4.833 22.318,4.833 21.750 C 4.833 21.182,4.910 20.971,5.167 20.833 C 5.386 20.716,5.500 20.484,5.500 20.156 C 5.500 19.881,5.604 19.616,5.730 19.568 C 5.857 19.519,6.007 19.192,6.063 18.841 C 6.119 18.490,6.278 18.160,6.416 18.107 C 6.554 18.054,6.667 17.861,6.667 17.678 C 6.667 17.495,6.817 17.265,7.000 17.167 C 7.193 17.063,7.333 16.818,7.333 16.583 C 7.333 16.349,7.474 16.103,7.667 16.000 C 7.850 15.902,8.000 15.720,8.000 15.595 C 8.000 15.471,8.112 15.326,8.250 15.273 C 8.387 15.220,8.500 15.021,8.500 14.830 C 8.500 14.632,8.911 14.065,9.458 13.509 C 9.985 12.973,10.567 12.342,10.750 12.108 C 10.933 11.874,11.177 11.679,11.292 11.674 C 11.406 11.670,11.500 11.599,11.500 11.517 C 11.500 11.319,12.370 10.333,12.544 10.333 C 12.620 10.333,13.084 9.921,13.576 9.417 C 14.096 8.884,14.617 8.500,14.819 8.500 C 15.010 8.500,15.167 8.423,15.167 8.330 C 15.167 8.236,15.354 8.074,15.583 7.970 C 15.813 7.865,16.000 7.679,16.000 7.557 C 16.000 7.434,16.151 7.333,16.335 7.333 C 16.519 7.333,16.798 7.183,16.955 7.000 C 17.112 6.817,17.375 6.667,17.539 6.667 C 17.703 6.667,17.965 6.517,18.122 6.333 C 18.300 6.126,18.614 6.000,18.954 6.000 C 19.313 6.000,19.500 5.919,19.500 5.765 C 19.500 5.620,19.757 5.486,20.167 5.417 C 20.577 5.347,20.833 5.213,20.833 5.069 C 20.833 4.912,21.024 4.833,21.403 4.833 C 22.131 4.833,22.500 4.690,22.500 4.407 C 22.500 4.249,22.802 4.168,23.523 4.133 C 24.382 4.091,24.567 4.028,24.674 3.737 C 24.816 3.351,23.317 3.122,23.086 3.495 M37.530 3.708 C 37.577 4.040,37.693 4.089,38.540 4.133 C 39.287 4.172,39.535 4.255,39.671 4.508 C 39.808 4.764,40.023 4.833,40.673 4.833 C 41.285 4.833,41.500 4.896,41.500 5.076 C 41.500 5.220,41.732 5.362,42.072 5.425 C 42.386 5.484,42.684 5.638,42.733 5.766 C 42.789 5.912,43.069 6.000,43.475 6.000 C 43.988 6.000,44.147 6.072,44.215 6.333 C 44.268 6.535,44.442 6.667,44.656 6.667 C 44.851 6.667,45.051 6.772,45.101 6.902 C 45.150 7.031,45.388 7.186,45.630 7.247 C 45.871 7.307,46.170 7.502,46.294 7.678 C 46.418 7.855,46.595 8.000,46.688 8.000 C 46.781 8.000,46.970 8.113,47.107 8.250 C 47.245 8.387,47.502 8.500,47.679 8.500 C 47.856 8.500,48.000 8.614,48.000 8.755 C 48.000 8.896,48.127 9.059,48.283 9.119 C 48.439 9.179,48.795 9.477,49.074 9.781 C 49.353 10.085,49.701 10.333,49.848 10.333 C 49.994 10.333,50.256 10.596,50.428 10.917 C 50.601 11.237,50.789 11.500,50.845 11.500 C 51.036 11.500,51.783 12.247,51.887 12.542 C 51.943 12.702,52.067 12.833,52.161 12.833 C 52.256 12.833,52.333 12.920,52.333 13.026 C 52.333 13.131,52.623 13.488,52.978 13.817 C 53.332 14.147,53.675 14.585,53.739 14.792 C 53.803 14.998,53.926 15.167,54.011 15.167 C 54.097 15.167,54.167 15.275,54.167 15.407 C 54.167 15.540,54.311 15.749,54.488 15.873 C 54.665 15.997,54.859 16.296,54.920 16.537 C 54.981 16.778,55.136 17.016,55.265 17.066 C 55.394 17.116,55.500 17.316,55.500 17.510 C 55.500 17.729,55.633 17.899,55.848 17.956 C 56.114 18.025,56.178 18.144,56.118 18.459 C 56.069 18.716,56.149 18.982,56.330 19.163 C 56.490 19.323,56.672 19.727,56.735 20.061 C 56.804 20.428,56.944 20.667,57.091 20.667 C 57.265 20.667,57.334 20.867,57.336 21.375 C 57.339 22.217,57.534 22.587,57.900 22.446 C 58.310 22.289,58.260 21.333,57.842 21.333 C 57.563 21.333,57.510 21.197,57.467 20.375 C 57.432 19.717,57.351 19.430,57.208 19.458 C 57.088 19.482,57.000 19.331,57.000 19.097 C 57.000 18.522,56.834 18.167,56.566 18.167 C 56.411 18.167,56.333 17.971,56.333 17.583 C 56.333 17.111,56.270 17.000,56.000 17.000 C 55.778 17.000,55.667 16.889,55.667 16.667 C 55.667 16.444,55.556 16.333,55.333 16.333 C 55.056 16.333,55.000 16.222,55.000 15.672 C 55.000 15.152,54.946 15.031,54.750 15.106 C 54.577 15.173,54.500 15.095,54.500 14.851 C 54.500 14.611,54.395 14.500,54.167 14.500 C 53.981 14.500,53.833 14.389,53.833 14.250 C 53.833 14.112,53.927 13.999,54.042 13.997 C 54.182 13.996,54.191 13.955,54.071 13.872 C 53.973 13.805,53.842 13.614,53.781 13.448 C 53.719 13.282,53.588 13.195,53.490 13.256 C 53.391 13.318,53.270 13.211,53.219 13.017 C 53.169 12.824,53.024 12.667,52.897 12.667 C 52.770 12.667,52.667 12.547,52.667 12.401 C 52.667 12.255,52.517 12.096,52.333 12.048 C 52.150 12.000,52.000 11.850,52.000 11.715 C 52.000 11.580,51.850 11.430,51.667 11.382 C 51.483 11.334,51.333 11.191,51.333 11.064 C 51.333 10.937,51.175 10.833,50.981 10.833 C 50.710 10.833,50.648 10.756,50.715 10.500 C 50.770 10.288,50.720 10.167,50.578 10.167 C 50.454 10.167,50.299 10.079,50.232 9.972 C 50.151 9.841,50.203 9.812,50.389 9.883 C 50.542 9.942,50.667 9.953,50.667 9.907 C 50.667 9.802,49.791 9.437,49.625 9.473 C 49.556 9.488,49.500 9.388,49.500 9.250 C 49.500 9.113,49.387 9.000,49.250 9.000 C 49.112 9.000,49.000 8.880,49.000 8.734 C 49.000 8.588,48.850 8.430,48.667 8.382 C 48.483 8.334,48.333 8.207,48.333 8.100 C 48.333 7.878,47.356 7.466,47.142 7.598 C 47.064 7.647,47.000 7.611,47.000 7.518 C 47.000 7.132,46.198 6.500,45.709 6.500 C 45.346 6.500,45.181 6.407,45.118 6.167 C 45.066 5.967,44.891 5.833,44.682 5.833 C 44.490 5.833,44.333 5.770,44.333 5.693 C 44.333 5.458,43.482 5.150,43.136 5.260 C 42.896 5.336,42.786 5.271,42.719 5.015 C 42.649 4.746,42.496 4.667,42.048 4.667 C 41.601 4.667,41.448 4.587,41.378 4.319 C 41.299 4.016,41.183 3.978,40.477 4.027 C 39.902 4.067,39.666 4.022,39.667 3.871 C 39.667 3.584,38.958 3.333,38.144 3.333 C 37.547 3.333,37.482 3.373,37.530 3.708 M46.250 17.827 C 45.979 17.938,46.035 17.974,46.552 18.023 L 47.188 18.083 47.173 28.554 C 47.162 35.688,47.212 38.992,47.329 38.920 C 47.698 38.691,47.551 18.039,47.178 17.839 C 46.807 17.641,46.707 17.639,46.250 17.827 M44.167 19.000 C 43.963 19.131,43.985 19.162,44.282 19.164 C 44.483 19.166,44.693 19.092,44.750 19.000 C 44.881 18.788,44.495 18.788,44.167 19.000 M43.000 19.667 C 42.797 19.798,42.818 19.829,43.115 19.831 C 43.316 19.832,43.527 19.758,43.583 19.667 C 43.714 19.454,43.328 19.454,43.000 19.667 M40.667 20.833 L 40.250 20.967 40.708 20.983 C 40.960 20.993,41.167 20.925,41.167 20.833 C 41.167 20.742,41.148 20.674,41.125 20.683 C 41.102 20.692,40.896 20.760,40.667 20.833 M38.833 21.500 C 38.647 21.620,38.743 21.662,39.208 21.664 C 39.552 21.666,39.833 21.592,39.833 21.500 C 39.833 21.288,39.162 21.288,38.833 21.500 M43.913 21.673 C 43.842 21.787,43.968 21.808,44.278 21.733 C 44.916 21.580,44.977 21.500,44.454 21.500 C 44.215 21.500,43.971 21.578,43.913 21.673 M37.352 22.024 C 36.350 22.206,36.292 22.333,37.212 22.333 C 37.635 22.333,38.030 22.253,38.090 22.156 C 38.252 21.894,38.159 21.878,37.352 22.024 M42.083 22.167 C 41.950 22.382,42.834 22.382,43.167 22.167 C 43.353 22.046,43.260 22.004,42.802 22.003 C 42.463 22.001,42.140 22.075,42.083 22.167 M34.917 22.667 C 34.275 22.782,34.286 22.787,35.208 22.810 C 35.752 22.823,36.167 22.761,36.167 22.667 C 36.167 22.485,35.932 22.485,34.917 22.667 M44.750 22.667 L 44.083 22.786 44.792 22.810 C 45.181 22.823,45.500 22.758,45.500 22.667 C 45.500 22.575,45.481 22.511,45.458 22.524 C 45.435 22.537,45.117 22.601,44.750 22.667 M58.000 23.432 C 58.000 24.241,58.047 24.377,58.352 24.456 C 58.663 24.538,58.693 24.635,58.610 25.316 C 58.461 26.547,58.694 28.069,59.042 28.135 C 59.462 28.216,59.484 25.593,59.065 25.433 C 58.875 25.360,58.817 25.184,58.869 24.831 C 58.909 24.557,58.886 24.333,58.818 24.333 C 58.750 24.333,58.718 24.019,58.746 23.635 C 58.812 22.757,58.714 22.500,58.316 22.500 C 58.044 22.500,58.000 22.629,58.000 23.432 M39.500 22.833 C 39.500 23.027,40.395 23.027,41.000 22.833 C 41.318 22.731,41.190 22.696,40.458 22.683 C 39.919 22.674,39.500 22.740,39.500 22.833 M19.792 23.347 C 19.631 23.440,19.505 23.682,19.511 23.883 L 19.523 24.250 19.703 23.875 L 19.884 23.500 25.109 23.500 C 28.481 23.500,30.333 23.441,30.333 23.333 C 30.333 23.104,20.186 23.117,19.792 23.347 M31.250 23.333 C 30.874 23.429,31.049 23.465,31.958 23.480 C 32.666 23.492,33.167 23.431,33.167 23.333 C 33.167 23.143,31.997 23.143,31.250 23.333 M40.667 23.333 C 39.675 23.433,39.735 23.445,41.385 23.471 C 42.550 23.490,43.150 23.441,43.083 23.333 C 42.974 23.157,42.421 23.157,40.667 23.333 M18.250 23.992 C 18.067 24.068,17.729 24.345,17.501 24.607 L 17.085 25.083 17.593 24.625 C 17.965 24.290,18.279 24.166,18.759 24.164 C 19.245 24.162,19.351 24.119,19.167 24.000 C 18.871 23.809,18.697 23.807,18.250 23.992 M15.065 25.663 C 14.871 25.741,14.667 25.925,14.611 26.071 C 14.535 26.270,14.633 26.245,15.005 25.970 C 15.662 25.484,15.675 25.417,15.065 25.663 M14.117 29.057 C 14.069 29.180,14.098 29.386,14.180 29.515 C 14.288 29.686,14.329 29.625,14.331 29.292 C 14.334 28.794,14.252 28.704,14.117 29.057 M14.096 30.383 C 14.021 30.639,14.006 30.895,14.063 30.952 C 14.250 31.139,14.360 30.873,14.295 30.390 L 14.231 29.917 14.096 30.383 M14.460 31.567 C 14.760 31.951,15.667 32.609,15.667 32.442 C 15.667 32.421,15.310 32.107,14.875 31.744 C 14.210 31.190,14.143 31.162,14.460 31.567 M16.042 32.615 C 16.202 32.657,16.465 32.657,16.625 32.615 C 16.785 32.573,16.654 32.539,16.333 32.539 C 16.012 32.539,15.881 32.573,16.042 32.615 M17.721 33.443 C 18.091 33.882,18.746 34.068,19.131 33.843 C 19.356 33.712,19.279 33.676,18.763 33.672 C 18.390 33.669,17.961 33.541,17.763 33.375 C 17.419 33.086,17.419 33.086,17.721 33.443 M2.933 33.623 C 2.878 33.677,2.842 34.516,2.853 35.486 C 2.863 36.456,2.908 37.100,2.952 36.917 C 3.094 36.329,3.332 36.236,3.360 36.758 C 3.375 37.029,3.432 36.837,3.485 36.333 C 3.680 34.515,3.402 33.154,2.933 33.623 M19.505 34.008 C 19.502 34.150,19.590 34.357,19.700 34.467 C 19.943 34.709,21.065 34.740,20.917 34.500 C 20.860 34.408,20.597 34.333,20.332 34.333 C 20.049 34.333,19.780 34.213,19.680 34.042 C 19.540 33.802,19.509 33.796,19.505 34.008 M58.843 34.161 C 58.682 34.260,58.614 34.766,58.602 35.974 C 58.587 37.422,58.545 37.660,58.292 37.726 C 58.058 37.787,58.000 37.986,58.000 38.729 C 58.000 39.484,57.939 39.688,57.667 39.833 C 57.402 39.975,57.333 40.182,57.333 40.839 C 57.333 41.435,57.268 41.667,57.101 41.667 C 56.863 41.667,56.667 42.011,56.667 42.430 C 56.667 42.560,56.525 42.808,56.353 42.981 C 56.152 43.182,56.067 43.443,56.118 43.707 C 56.178 44.023,56.114 44.141,55.848 44.211 C 55.590 44.279,55.500 44.435,55.500 44.818 C 55.500 45.154,55.417 45.333,55.261 45.333 C 55.130 45.333,54.973 45.491,54.911 45.683 C 54.850 45.876,54.658 46.176,54.484 46.350 C 54.309 46.524,54.167 46.771,54.167 46.899 C 54.167 47.027,54.054 47.174,53.917 47.227 C 53.779 47.280,53.667 47.435,53.667 47.572 C 53.667 47.709,53.517 47.902,53.333 48.000 C 53.150 48.098,53.000 48.256,53.000 48.350 C 53.000 48.445,52.737 48.770,52.417 49.073 C 52.096 49.375,51.833 49.746,51.833 49.897 C 51.833 50.048,51.601 50.313,51.317 50.486 C 51.032 50.659,50.659 51.032,50.486 51.317 C 50.313 51.601,50.056 51.833,49.914 51.833 C 49.772 51.833,49.415 52.096,49.121 52.417 C 48.827 52.737,48.537 53.000,48.477 53.000 C 48.417 53.000,48.117 53.235,47.809 53.523 C 47.502 53.811,47.044 54.118,46.792 54.206 C 46.540 54.294,46.333 54.438,46.333 54.525 C 46.333 54.612,46.108 54.762,45.833 54.858 C 45.558 54.954,45.333 55.138,45.333 55.266 C 45.333 55.413,45.154 55.500,44.853 55.500 C 44.506 55.500,44.347 55.597,44.282 55.847 C 44.219 56.087,44.071 56.184,43.804 56.162 C 43.153 56.108,43.000 56.156,43.000 56.417 C 43.000 56.570,42.844 56.667,42.597 56.667 C 41.971 56.667,41.667 56.839,41.667 57.195 C 41.667 57.463,41.764 57.512,42.208 57.469 C 42.590 57.432,42.744 57.336,42.730 57.142 C 42.714 56.936,42.852 56.867,43.276 56.867 C 43.587 56.867,43.941 56.785,44.062 56.685 C 44.182 56.585,44.342 56.558,44.417 56.626 C 44.492 56.694,44.499 56.656,44.434 56.542 C 44.359 56.413,44.413 56.333,44.575 56.333 C 44.719 56.333,44.965 56.183,45.122 56.000 C 45.284 55.810,45.614 55.667,45.886 55.667 C 46.224 55.667,46.390 55.569,46.452 55.333 C 46.500 55.150,46.678 55.000,46.848 55.000 C 47.057 55.000,47.125 54.918,47.058 54.743 C 47.003 54.602,47.025 54.499,47.105 54.515 C 47.451 54.585,48.333 54.273,48.333 54.082 C 48.333 53.967,48.483 53.833,48.667 53.785 C 48.850 53.737,49.000 53.578,49.000 53.432 C 49.000 53.191,49.315 53.076,49.750 53.159 C 49.842 53.176,49.823 53.095,49.708 52.979 C 49.366 52.630,49.468 52.500,50.083 52.500 C 50.404 52.500,50.667 52.421,50.667 52.323 C 50.667 52.226,50.573 52.202,50.458 52.269 C 50.344 52.336,50.381 52.241,50.542 52.057 C 50.702 51.874,50.833 51.636,50.833 51.529 C 50.833 51.421,50.946 51.333,51.083 51.333 C 51.222 51.333,51.333 51.185,51.333 51.000 C 51.333 50.778,51.444 50.667,51.667 50.667 C 51.852 50.667,52.000 50.556,52.000 50.417 C 52.000 50.278,52.148 50.167,52.333 50.167 C 52.517 50.167,52.658 50.110,52.647 50.042 C 52.593 49.698,52.691 49.500,52.917 49.500 C 53.056 49.500,53.167 49.352,53.167 49.167 C 53.167 48.944,53.278 48.833,53.500 48.833 C 53.683 48.833,53.833 48.726,53.833 48.595 C 53.833 48.463,53.983 48.308,54.167 48.250 C 54.415 48.171,54.500 47.998,54.500 47.572 C 54.500 47.175,54.576 47.000,54.750 47.000 C 54.988 47.000,55.076 46.735,55.033 46.153 C 55.023 46.008,55.113 45.889,55.234 45.889 C 55.373 45.889,55.423 46.017,55.369 46.236 C 55.320 46.437,55.347 46.525,55.434 46.444 C 55.595 46.295,55.614 46.218,55.646 45.583 C 55.661 45.285,55.761 45.167,56.000 45.167 C 56.268 45.167,56.333 45.056,56.333 44.603 C 56.333 44.179,56.416 44.017,56.667 43.952 C 56.922 43.885,57.000 43.724,57.000 43.266 C 57.000 42.844,57.074 42.667,57.250 42.667 C 57.400 42.667,57.500 42.513,57.500 42.283 C 57.500 42.072,57.594 41.799,57.708 41.676 C 57.875 41.496,57.875 41.475,57.708 41.569 C 57.564 41.650,57.500 41.549,57.500 41.240 C 57.500 40.877,57.561 40.810,57.833 40.882 C 58.122 40.957,58.167 40.887,58.167 40.358 C 58.167 39.920,58.265 39.686,58.512 39.531 C 58.806 39.347,58.843 39.205,58.759 38.582 C 58.674 37.958,58.710 37.822,58.996 37.669 C 59.300 37.506,59.333 37.324,59.333 35.837 C 59.333 34.175,59.255 33.906,58.843 34.161 M28.417 34.500 C 28.289 34.706,30.104 34.706,30.583 34.500 C 30.813 34.401,30.542 34.353,29.718 34.345 C 29.059 34.339,28.473 34.408,28.417 34.500 M31.917 34.510 C 32.865 34.706,34.667 34.699,34.667 34.500 C 34.667 34.398,33.999 34.341,32.958 34.352 C 31.597 34.368,31.385 34.400,31.917 34.510 M35.847 35.061 C 36.039 35.229,37.667 35.329,37.667 35.172 C 37.667 35.074,37.262 35.000,36.722 35.000 C 36.203 35.000,35.809 35.027,35.847 35.061 M21.350 36.292 C 21.395 37.086,21.633 37.416,21.650 36.708 C 21.659 36.319,21.592 36.000,21.500 36.000 C 21.408 36.000,21.341 36.131,21.350 36.292 M28.881 36.917 C 28.882 37.375,28.915 37.543,28.953 37.289 C 28.991 37.036,28.990 36.661,28.951 36.456 C 28.911 36.251,28.880 36.458,28.881 36.917 M40.333 36.333 C 40.664 36.547,41.382 36.547,41.250 36.333 C 41.193 36.242,40.908 36.168,40.615 36.169 C 40.210 36.171,40.143 36.210,40.333 36.333 M42.083 37.000 C 42.539 37.196,42.667 37.196,42.667 37.000 C 42.667 36.908,42.460 36.839,42.208 36.845 C 41.802 36.855,41.788 36.873,42.083 37.000 M3.407 37.727 C 3.264 38.301,3.463 39.384,3.753 39.602 C 3.889 39.703,4.000 40.022,4.000 40.310 C 4.000 40.598,4.056 40.824,4.125 40.814 C 4.584 40.741,4.667 40.885,4.667 41.750 C 4.667 42.566,4.705 42.667,5.011 42.667 C 5.280 42.667,5.333 42.740,5.250 43.000 C 5.108 43.447,5.299 44.000,5.595 44.000 C 5.795 44.000,5.921 44.414,5.856 44.865 C 5.847 44.928,5.989 45.027,6.170 45.084 C 6.352 45.142,6.500 45.334,6.500 45.511 C 6.500 45.722,6.615 45.833,6.833 45.833 C 7.103 45.833,7.167 45.944,7.167 46.417 C 7.167 46.824,7.242 47.000,7.417 47.000 C 7.554 47.000,7.667 47.120,7.667 47.266 C 7.667 47.412,7.820 47.571,8.007 47.620 C 8.194 47.669,8.335 47.831,8.321 47.980 C 8.259 48.618,8.346 48.833,8.667 48.833 C 8.889 48.833,9.000 48.944,9.000 49.167 C 9.000 49.350,9.104 49.500,9.231 49.500 C 9.357 49.500,9.500 49.650,9.548 49.833 C 9.596 50.017,9.755 50.167,9.901 50.167 C 10.047 50.167,10.167 50.279,10.167 50.417 C 10.167 50.556,10.315 50.667,10.500 50.667 C 10.722 50.667,10.833 50.778,10.833 51.000 C 10.833 51.222,10.944 51.333,11.167 51.333 C 11.389 51.333,11.500 51.444,11.500 51.667 C 11.500 51.852,11.611 52.000,11.750 52.000 C 11.887 52.000,12.000 52.099,12.000 52.221 C 12.000 52.527,12.711 53.167,13.052 53.167 C 13.207 53.167,13.324 53.223,13.314 53.292 C 13.260 53.633,13.357 53.833,13.577 53.833 C 13.712 53.833,13.903 53.985,14.002 54.171 C 14.102 54.357,14.250 54.468,14.331 54.418 C 14.413 54.368,14.557 54.459,14.651 54.621 C 14.746 54.784,14.825 54.823,14.828 54.708 C 14.831 54.594,14.916 54.500,15.018 54.500 C 15.119 54.500,15.159 54.612,15.106 54.750 C 15.042 54.918,15.114 55.000,15.327 55.000 C 15.502 55.000,15.692 55.150,15.750 55.333 C 15.937 55.921,17.000 55.708,17.000 55.083 C 17.000 55.052,16.781 54.978,16.514 54.920 C 16.247 54.861,15.986 54.704,15.935 54.571 C 15.884 54.437,15.671 54.251,15.463 54.157 C 14.726 53.824,14.275 53.522,14.130 53.262 C 14.049 53.118,13.875 53.000,13.742 53.000 C 13.609 53.000,13.500 52.893,13.500 52.761 C 13.500 52.630,13.357 52.477,13.182 52.422 C 13.007 52.366,12.822 52.211,12.771 52.077 C 12.719 51.943,12.573 51.833,12.445 51.833 C 12.318 51.833,12.072 51.637,11.898 51.396 C 11.546 50.907,11.446 50.810,10.792 50.319 C 10.540 50.130,10.333 49.865,10.333 49.731 C 10.333 49.596,9.921 49.083,9.417 48.590 C 8.912 48.098,8.500 47.574,8.500 47.426 C 8.500 47.278,8.387 47.113,8.250 47.060 C 8.112 47.008,8.000 46.825,8.000 46.655 C 8.000 46.484,7.850 46.265,7.667 46.167 C 7.483 46.069,7.333 45.853,7.333 45.687 C 7.333 45.521,7.183 45.249,7.000 45.083 C 6.817 44.917,6.667 44.683,6.667 44.563 C 6.667 44.443,6.518 44.265,6.336 44.168 C 6.154 44.071,6.016 43.862,6.029 43.704 C 6.084 43.034,5.985 42.667,5.750 42.667 C 5.583 42.667,5.500 42.500,5.500 42.165 C 5.500 41.870,5.363 41.546,5.167 41.378 C 4.931 41.176,4.833 40.886,4.833 40.385 C 4.833 39.849,4.753 39.635,4.500 39.500 C 4.236 39.359,4.167 39.151,4.167 38.500 C 4.167 37.528,3.602 36.953,3.407 37.727 M22.005 38.250 C 22.005 38.433,22.078 38.696,22.167 38.833 C 22.300 39.040,22.328 39.026,22.328 38.750 C 22.328 38.567,22.256 38.304,22.167 38.167 C 22.033 37.960,22.005 37.974,22.005 38.250 M45.750 38.833 C 46.205 39.029,46.333 39.029,46.333 38.833 C 46.333 38.742,46.127 38.672,45.875 38.678 C 45.469 38.689,45.455 38.706,45.750 38.833 M28.167 39.345 C 28.167 39.489,28.392 39.859,28.667 40.167 C 28.942 40.475,29.167 40.643,29.167 40.540 C 29.167 40.437,29.086 40.303,28.986 40.242 C 28.887 40.180,28.663 39.895,28.487 39.607 C 28.308 39.312,28.168 39.198,28.167 39.345 M22.512 39.448 C 22.549 39.881,22.810 40.248,22.822 39.885 C 22.828 39.684,22.758 39.473,22.667 39.417 C 22.575 39.360,22.505 39.374,22.512 39.448 M23.178 40.958 C 23.224 41.447,23.477 41.719,23.488 41.292 C 23.495 41.040,23.425 40.833,23.333 40.833 C 23.242 40.833,23.172 40.890,23.178 40.958 M30.045 41.512 C 30.388 41.795,30.675 42.187,30.686 42.387 C 30.702 42.695,30.717 42.703,30.785 42.441 C 30.866 42.125,29.938 41.000,29.596 41.000 C 29.501 41.000,29.704 41.230,30.045 41.512 M28.417 44.333 C 28.360 44.425,28.464 44.500,28.647 44.500 C 28.830 44.500,29.027 44.425,29.083 44.333 C 29.140 44.242,29.036 44.167,28.853 44.167 C 28.670 44.167,28.473 44.242,28.417 44.333 M25.861 44.813 C 25.517 45.031,26.121 45.135,27.004 45.010 L 27.750 44.904 27.083 44.787 C 26.237 44.639,26.132 44.641,25.861 44.813 M17.030 55.868 C 17.062 56.091,17.235 56.272,17.468 56.327 C 17.680 56.376,17.849 56.473,17.843 56.542 C 17.817 56.871,17.851 56.897,18.000 56.667 C 18.108 56.500,18.162 56.486,18.164 56.625 C 18.166 56.741,18.371 56.833,18.627 56.833 C 18.906 56.833,19.168 56.964,19.295 57.167 C 19.584 57.631,20.500 57.633,20.500 57.170 C 20.500 56.830,19.842 56.539,19.521 56.737 C 19.431 56.793,19.309 56.687,19.251 56.502 C 19.176 56.268,18.999 56.167,18.661 56.167 C 18.349 56.167,18.115 56.049,18.000 55.833 C 17.739 55.346,16.959 55.374,17.030 55.868 M20.667 57.644 C 20.667 58.018,21.425 58.266,22.006 58.082 C 22.666 57.872,22.321 57.421,21.457 57.366 C 20.764 57.321,20.667 57.356,20.667 57.644 M40.042 57.444 C 39.523 57.653,39.824 58.167,40.467 58.167 C 41.114 58.167,41.500 57.936,41.500 57.550 C 41.500 57.335,40.494 57.261,40.042 57.444 M22.500 58.333 C 22.500 58.630,22.611 58.667,23.500 58.667 C 24.240 58.667,24.500 58.727,24.500 58.897 C 24.500 59.394,27.868 59.475,27.964 58.981 C 28.025 58.666,26.109 58.402,25.115 58.588 C 24.631 58.679,24.533 58.643,24.455 58.348 C 24.321 57.833,22.500 57.820,22.500 58.333 M37.890 58.301 C 37.821 58.565,37.612 58.601,36.161 58.601 C 34.396 58.601,34.268 58.635,34.431 59.059 C 34.600 59.500,37.048 59.452,37.500 59.000 C 37.753 58.747,38.056 58.667,38.750 58.667 C 39.556 58.667,39.667 58.626,39.667 58.333 C 39.667 57.860,38.013 57.830,37.890 58.301 " stroke="none" fill="#5c5cdc" fill-rule="evenodd"></path><path id="path4" d="M45.854 18.225 C 45.743 18.358,45.477 18.512,45.262 18.566 C 45.046 18.620,44.827 18.777,44.774 18.915 C 44.643 19.255,44.872 19.232,45.353 18.856 C 46.093 18.278,46.928 18.144,47.217 18.558 C 47.300 18.677,47.331 18.622,47.299 18.417 C 47.233 17.994,46.163 17.853,45.854 18.225 M43.667 19.500 C 43.439 19.926,43.682 19.928,44.190 19.506 L 44.583 19.178 44.214 19.172 C 44.011 19.169,43.765 19.317,43.667 19.500 M42.560 20.083 C 42.507 20.222,42.259 20.333,42.003 20.333 C 41.560 20.333,41.020 20.742,41.211 20.933 C 41.320 21.042,43.118 20.213,43.257 19.989 C 43.310 19.904,43.196 19.833,43.005 19.833 C 42.813 19.833,42.613 19.946,42.560 20.083 M44.583 21.179 L 44.083 21.530 44.772 21.433 C 45.599 21.316,45.967 21.606,45.678 22.145 C 45.432 22.604,45.455 22.833,45.747 22.833 C 46.044 22.833,46.211 22.254,46.137 21.481 C 46.069 20.766,45.365 20.629,44.583 21.179 M40.042 21.110 C 39.927 21.157,39.833 21.263,39.833 21.347 C 39.833 21.581,40.377 21.519,40.740 21.245 C 41.082 20.986,40.586 20.891,40.042 21.110 M43.000 21.709 L 42.583 21.896 43.064 21.961 C 43.355 22.001,43.649 21.923,43.808 21.763 C 44.137 21.435,43.678 21.404,43.000 21.709 M38.278 21.778 C 37.869 22.186,38.578 22.312,39.093 21.922 C 39.400 21.690,39.391 21.677,38.903 21.672 C 38.620 21.669,38.339 21.717,38.278 21.778 M40.833 22.417 L 40.417 22.655 40.945 22.661 C 41.564 22.668,42.000 22.525,42.000 22.316 C 42.000 22.089,41.301 22.149,40.833 22.417 M36.278 22.444 C 35.866 22.856,36.513 22.957,37.167 22.583 L 37.583 22.345 36.986 22.339 C 36.658 22.336,36.339 22.383,36.278 22.444 M33.500 23.047 C 33.109 23.228,33.131 23.243,33.875 23.296 C 34.400 23.333,34.793 23.264,35.038 23.092 C 35.509 22.762,34.199 22.724,33.500 23.047 M38.167 23.067 C 37.938 23.189,37.308 23.331,36.768 23.384 C 34.025 23.654,35.597 24.162,38.667 23.998 C 41.363 23.853,42.768 23.529,40.776 23.511 C 39.780 23.501,39.624 23.458,39.548 23.167 C 39.446 22.774,38.808 22.728,38.167 23.067 M43.240 23.078 C 42.786 23.422,44.233 23.427,44.833 23.083 C 45.236 22.853,45.222 22.845,44.407 22.839 C 43.915 22.836,43.429 22.935,43.240 23.078 M30.167 23.495 C 30.029 23.587,29.992 23.663,30.083 23.664 C 30.252 23.667,30.261 33.680,30.093 34.119 C 30.029 34.286,30.388 34.330,31.714 34.316 L 33.417 34.299 32.500 34.088 C 31.055 33.755,31.057 33.756,30.939 32.633 C 30.584 29.233,30.896 24.289,31.497 23.802 L 31.870 23.500 31.477 23.498 C 31.260 23.496,30.933 23.458,30.750 23.412 C 30.567 23.366,30.304 23.404,30.167 23.495 M19.720 23.869 C 19.580 24.182,19.442 24.230,18.805 24.191 C 18.126 24.149,18.003 24.202,17.532 24.739 C 17.096 25.236,16.900 25.333,16.338 25.333 C 15.926 25.333,15.549 25.446,15.362 25.625 C 15.194 25.785,14.858 26.084,14.615 26.288 C 14.266 26.581,14.200 26.739,14.304 27.038 C 14.377 27.246,14.419 27.754,14.397 28.167 C 14.376 28.579,14.341 29.437,14.318 30.073 L 14.278 31.230 15.014 31.864 C 15.531 32.311,15.907 32.499,16.278 32.500 C 16.917 32.500,17.333 32.645,17.333 32.866 C 17.333 33.234,18.104 33.656,18.786 33.661 C 19.314 33.665,19.532 33.749,19.667 34.000 C 19.765 34.183,19.969 34.333,20.121 34.333 C 20.356 34.333,20.348 34.298,20.074 34.097 C 19.651 33.788,19.564 24.275,19.979 23.775 C 20.105 23.624,20.135 23.500,20.046 23.500 C 19.957 23.500,19.810 23.666,19.720 23.869 M18.939 24.747 C 18.991 24.883,18.947 25.891,18.841 26.988 C 18.693 28.522,18.696 29.464,18.853 31.079 C 19.073 33.353,19.011 33.618,18.331 33.282 C 17.253 32.750,16.933 26.394,17.910 24.904 C 18.204 24.455,18.792 24.365,18.939 24.747 M16.589 26.008 C 16.765 26.294,16.669 31.713,16.484 31.936 C 16.253 32.214,15.336 31.943,14.958 31.484 C 14.553 30.991,14.593 30.654,15.108 30.244 C 15.470 29.955,15.518 29.835,15.372 29.575 C 15.257 29.370,15.250 29.155,15.353 28.963 C 15.456 28.770,15.449 28.550,15.333 28.333 C 15.211 28.105,15.208 27.900,15.324 27.684 C 15.461 27.428,15.415 27.316,15.084 27.099 C 14.351 26.619,14.896 25.902,16.032 25.853 C 16.279 25.842,16.529 25.912,16.589 26.008 M20.952 34.792 C 21.047 35.388,21.348 36.000,21.546 36.000 C 21.632 36.000,21.657 35.882,21.602 35.738 C 21.284 34.909,21.654 34.809,24.803 34.869 C 26.424 34.900,27.872 34.984,28.020 35.055 C 28.226 35.155,28.310 35.084,28.372 34.760 C 28.451 34.349,27.933 34.122,27.624 34.432 C 27.501 34.555,21.823 34.546,21.700 34.423 C 21.387 34.109,20.883 34.357,20.952 34.792 M34.667 34.489 C 34.667 34.744,35.545 35.000,36.383 34.988 L 37.250 34.977 36.667 34.764 C 35.938 34.498,34.667 34.323,34.667 34.489 M37.667 35.148 C 37.667 35.409,38.245 35.667,38.834 35.667 C 39.122 35.667,39.470 35.779,39.607 35.917 C 39.745 36.054,40.086 36.167,40.366 36.167 C 40.799 36.167,40.843 36.130,40.667 35.917 C 40.553 35.779,40.262 35.666,40.021 35.666 C 39.780 35.665,39.382 35.560,39.136 35.431 C 38.495 35.097,37.667 34.937,37.667 35.148 M28.397 36.688 C 28.415 37.746,28.376 37.903,28.042 38.125 C 27.297 38.620,27.830 39.832,29.490 41.424 C 30.196 42.100,30.289 42.262,30.161 42.598 C 29.998 43.028,29.416 43.667,29.187 43.667 C 29.107 43.667,28.947 43.779,28.833 43.917 C 28.660 44.126,28.685 44.167,28.985 44.167 C 29.182 44.167,29.387 44.054,29.440 43.917 C 29.492 43.779,29.626 43.667,29.736 43.667 C 30.004 43.667,30.667 42.756,30.667 42.388 C 30.667 42.228,30.142 41.593,29.501 40.978 C 28.016 39.554,27.845 39.151,28.413 38.407 C 28.833 37.856,29.001 36.464,28.732 35.764 C 28.512 35.189,28.378 35.558,28.397 36.688 M41.167 36.227 C 41.167 36.468,41.748 36.833,42.132 36.833 C 42.555 36.833,42.560 36.824,42.245 36.606 C 41.875 36.350,41.167 36.101,41.167 36.227 M21.673 36.974 C 21.669 37.286,21.813 37.717,22.000 37.955 C 22.183 38.188,22.333 38.546,22.333 38.752 C 22.333 38.958,22.446 39.219,22.583 39.333 C 22.721 39.447,22.833 39.747,22.833 40.000 C 22.833 40.253,22.948 40.554,23.087 40.670 C 23.503 41.015,23.543 40.746,23.177 40.062 C 22.988 39.710,22.833 39.343,22.833 39.246 C 22.833 39.149,22.683 38.776,22.500 38.417 C 22.317 38.057,22.164 37.647,22.161 37.506 C 22.158 37.365,22.048 37.063,21.917 36.833 L 21.678 36.417 21.673 36.974 M42.667 36.994 C 42.667 37.207,43.229 37.500,43.638 37.500 C 43.817 37.500,44.004 37.603,44.052 37.729 C 44.100 37.854,44.347 38.009,44.601 38.073 C 44.855 38.137,45.147 38.303,45.249 38.444 C 45.352 38.585,45.610 38.673,45.828 38.641 C 46.272 38.576,45.927 38.346,43.882 37.341 C 42.742 36.782,42.667 36.760,42.667 36.994 M46.374 38.875 C 46.480 39.196,47.167 39.242,47.167 38.928 C 47.167 38.758,47.016 38.667,46.736 38.667 C 46.466 38.667,46.331 38.744,46.374 38.875 M23.500 41.495 C 23.500 41.687,23.613 41.887,23.750 41.940 C 23.887 41.992,24.000 42.215,24.000 42.433 C 24.000 42.652,24.150 42.924,24.333 43.039 C 24.517 43.153,24.667 43.341,24.667 43.457 C 24.667 43.572,24.804 43.804,24.971 43.971 C 25.138 44.138,25.324 44.401,25.383 44.554 C 25.480 44.809,26.000 44.963,26.000 44.737 C 26.000 44.684,25.771 44.412,25.491 44.132 C 25.013 43.654,24.694 43.142,24.092 41.886 C 23.773 41.220,23.500 41.040,23.500 41.495 M27.667 44.361 C 26.804 44.605,26.661 44.833,27.371 44.833 C 27.704 44.833,28.094 44.715,28.238 44.571 C 28.688 44.121,28.614 44.094,27.667 44.361 " stroke="none" fill="#8c6cb4" fill-rule="evenodd"></path></g></svg>